<?xml version="1.0" encoding="UTF-8"?>
<svg version="1.1" viewBox="0 0 1563 1563" width="1563" height="1563" xmlns="http://www.w3.org/2000/svg">
<path transform="translate(0)" d="m0 0h1563v1563h-1563z" fill="#fff"/>
<path transform="translate(364,455)" d="m0 0h47l32 3 32 5 30 7 30 10 21 9 19 9 17 10 15 10 13 10 14 12 22 22 9 11 14 19 12 20 12 23 10 25 8 26 5 22v4h-192l-5-35-7-34-8-28-9-26-9-21-13-25-8-12-9-12-11-12-11-11-16-11-14-7-13-4-15-2h-12l-19 3-13 5-12 6-13 10-12 11-9 11-12 17-10 18-9 19-9 24-9 31-8 38-5 35-2 12h-189l4-17 6-20 8-21 15-31 14-23 13-18 12-14 7-8 9-10 8-7 11-10 13-10 20-14 23-13 23-11 23-9 18-6 24-6 21-4 33-4z"/>
<path transform="translate(55,933)" d="m0 0h186l8 32 12 36 9 21 8 16 6 11 10 15 11 14 11 12 14 11 11 7 10 5 16 5 16 2 17-1 14-3 17-7 11-7 10-8 15-15 13-18 10-17 12-25 10-28 7-24 8-34h180l-5 13-11 22-12 20-14 20-11 13-7 8-12 13-15 14-14 11-17 12-13 8-16 9-27 13-30 11-31 8-28 5-29 3-23 1h-26l-33-2-35-5-32-7-26-8-27-11-17-8-21-12-16-11-17-13-12-11-20-20-9-11-14-19-12-20-10-19-10-25z"/>
<path transform="translate(862,468)" d="m0 0 27 1h104l32-1 15 15 7 8 10 10 7 8 11 11 7 8 10 10 7 8 11 11 7 8 11 11 7 8 10 10 7 8 11 11 7 8 10 10 7 8 11 11 7 8 11 11 7 8 10 10 7 8 11 11 4 6h-272l-12-12-7-8-12-13-2-2-1 35h-21l-1-170-3-22-4-12-7-9-10-6-16-4-25-3z"/>
<path transform="translate(1186,933)" d="m0 0h239v191l-19-1h-23l-23 1-9-9-7-8-14-15-7-8-14-15-9-10-12-13-33-36-9-10-12-13-22-24-9-10-14-15z"/>
<path transform="translate(1310,468)" d="m0 0 37 1h117l27-1v18l-24 8-11 6-8 6-8 11-5 11-4 14-3 20-2 30-1 120h-21l-1-96-2-39-3-25-4-16-8-16-9-10-8-6-12-6-18-6-29-6z"/>
<path transform="translate(929,933)" d="m0 0h20l2 67 3 34 4 19 7 16 7 9 9 8 16 8 15 5 24 5 7 2v18l-28-1-55-1h-36l-41 1-21 1v-18l8-3 12-4 14-7 10-8 7-9 6-14 4-16 3-27 1-17 1-67z"/>
<path transform="translate(838,767)" d="m0 0h13l16 4 11 6 10 10 7 14 2 10v10l-2 10-4 10-7 9-8 7-10 5-10 3h-22l-13-4-10-6-6-5-7-10-4-10-1-5v-18l4-12 6-10 10-9 12-6z"/>
<path transform="translate(137,767)" d="m0 0h13l16 4 10 6 9 8 7 12 3 11v17l-4 13-6 9-9 9-14 7-8 2h-22l-15-5-10-7-8-9-6-12-2-11v-10l3-13 6-11 10-10 16-8z"/>
<path transform="translate(1024,769)" d="m0 0h19l14 17 18 22 14 17 1-56h21v95h-18l-28-34-18-22-1 56h-22z"/>
<path transform="translate(248,769)" d="m0 0h19l14 17 18 22 14 17 1-56h21v95h-18l-28-34-18-22-1 56h-22z"/>
<path transform="translate(1387,769)" d="m0 0h21l1 43 15-15 7-8 11-11 7-8 1-1h24l-6 8-9 9-7 8-15 16 2 5 13 16 22 28 3 5h-25l-9-10-11-14-10-12-4 2-9 10-1 24h-21z"/>
<path transform="translate(434,767)" d="m0 0h13l14 3 12 6 7 7-6 7-7 6-4-2-8-5-6-2h-16l-9 4-8 7-4 9-1 5v9l3 10 6 8 8 5 7 2h13l11-3v-28h19v39l-10 6-12 4-5 1h-22l-13-4-11-7-7-7-6-10-3-9-1-7v-10l3-13 6-11 5-6 10-7 8-4z"/>
<path transform="translate(534,769)" d="m0 0h22l1 59 3 10 5 5 7 3h11l7-3 5-5 3-9 1-60h21v64l-3 10-6 10-7 6-11 5-5 1h-21l-13-4-9-7-7-10-3-10-1-10z"/>
<path transform="translate(1290,767)" d="m0 0h13l16 4 10 6 6 6-2 4-10 9h-3v-2l-4-2-7-4-4-1h-15l-10 4-5 4-5 8-2 7v12l4 11 7 8 9 4 4 1h11l11-4 8-6 8 7 5 5-2 4-9 7-12 5-5 1h-21l-13-4-10-6-9-9-7-14-2-8v-15l3-12 6-10 7-8 11-7 12-4z"/>
<path transform="translate(775,411)" d="m0 0h12v301h-12z"/>
<path transform="translate(775,933)" d="m0 0h12v265h-12z"/>
<path transform="translate(668,769)" d="m0 0h82v17h-30v78h-22v-78h-30z"/>
<path transform="translate(136,786)" d="m0 0h15l12 6 6 7 4 10v15l-4 10-4 5-9 6-7 2h-11l-11-4-8-7-5-10-1-5v-9l3-10 4-6 8-7z" fill="#fff"/>
<path transform="translate(837,786)" d="m0 0h15l10 4 8 8 4 9 1 5v9l-3 10-6 8-9 6-7 2h-11l-9-3-7-5-6-9-2-6v-15l4-10 7-8z" fill="#fff"/>
<path transform="translate(1170,769)" d="m0 0h22v95h-22z"/>
</svg>
