<?xml version="1.0" encoding="UTF-8"?>
<svg version="1.1" viewBox="0 0 1563 1563" width="1563" height="1563" xmlns="http://www.w3.org/2000/svg">
<path transform="translate(0)" d="m0 0h1563v1563h-1563z"/>
<path transform="translate(360,455)" d="m0 0h52l32 3 26 4 24 5 30 9 26 10 27 13 20 12 14 10 13 10 11 10 8 7 14 15 9 11 14 19 13 22 8 16 9 20 9 27 6 24 1 10h-192l-5-34-7-34-9-32-10-28-11-24-11-20-12-17-11-13-13-13-14-10-15-8-16-5-16-2-18 1-14 3-16 7-14 9-14 12-9 10-11 15-9 15-10 19-8 20-10 30-8 32-6 34-4 31-1 2h-189l3-14 8-26 8-20 6-13 12-23 12-19 12-16 9-11 9-10 10-11 8-7 10-9 17-13 18-12 19-11 27-13 26-10 27-8 23-5 40-5z" fill="#fff"/>
<path transform="translate(55,933)" d="m0 0h186l10 38 10 30 10 23 13 25 8 12 9 12 11 12 10 10 14 10 15 8 17 5 18 2 20-2 16-5 14-7 16-12 14-14 12-16 9-15 11-21 11-28 8-26 7-29 3-12h180l-5 13-8 16-8 15-11 17-13 18-12 14-12 13-9 9-8 7-16 13-16 11-16 10-16 9-19 9-23 9-19 6-24 6-20 4-24 3-32 2h-37l-27-2-29-4-29-6-25-7-25-9-26-12-20-11-18-12-17-13-12-11-8-7-14-15-9-11-13-18-11-18-12-23-9-22z" fill="#fff"/>
<path transform="translate(862,468)" d="m0 0 32 1h93l24-1h14l17 17 7 8 11 11 7 8 10 10 7 8 11 11 7 8 11 11 7 8 10 10 7 8 11 11 7 8 10 10 7 8 11 11 7 8 11 11 7 8 10 10 7 8 11 11 7 8 10 10 2 4h-273l-9-10-12-13-11-12-1 35h-21l-1-168-2-18-4-15-6-10-5-4-7-4-17-4-24-3z" fill="#fff"/>
<path transform="translate(1186,933)" d="m0 0h239v191l-23-1h-15l-27 1-10-10-7-8-14-15-9-10-77-84-9-10-12-13-33-36z" fill="#fff"/>
<path transform="translate(1310,468)" d="m0 0h15l28 1h106l32-1v18l-24 8-14 8-9 9-8 14-5 17-3 21-2 34-1 115h-21l-1-90-2-44-3-25-4-16-5-12-7-10-7-7-14-8-16-6-20-5-15-3z" fill="#fff"/>
<path transform="translate(928,933)" d="m0 0h21l2 64 2 28 3 20 6 18 6 10 9 10 11 7 15 6 18 5 22 4v19l-32-1-75-1-51 1-23 1v-18l8-3 19-7 11-7 8-7 8-13 5-15 3-17 2-21 1-19z" fill="#fff"/>
<path transform="translate(135,767)" d="m0 0h16l13 3 11 6 10 9 6 9 4 12v20l-3 10-6 10-6 7-11 7-10 4-11 2h-9l-12-2-12-5-8-6-7-7-7-14-2-9v-14l3-11 5-10 7-8 10-7 13-5z" fill="#fff"/>
<path transform="translate(837,767)" d="m0 0h16l12 3 10 5 9 7 8 11 4 11 1 5v14l-3 12-5 9-9 10-11 7-12 4-8 1h-9l-15-3-12-6-10-9-8-14-2-8v-20l4-12 7-10 10-9 13-6z" fill="#fff"/>
<path transform="translate(1024,769)" d="m0 0h19l12 14 8 10 18 22 8 10 1-56h22v95h-19l-12-14-8-10-9-11-14-17-3-4-1 56h-22z" fill="#fff"/>
<path transform="translate(248,769)" d="m0 0h19l12 14 8 10 18 22 8 10 1-56h22v95h-19l-12-14-8-10-9-11-14-17-3-4-1 56h-22z" fill="#fff"/>
<path transform="translate(1387,769)" d="m0 0h22l1 42 9-9 7-8 12-12 7-8 5-5h24l-2 4-10 10-7 8-16 17-2 4 13 16 10 13 11 14 6 8v1h-26l-8-10-9-11-12-15-3 1-7 8-2 2-1 25h-22z" fill="#fff"/>
<path transform="translate(432,767)" d="m0 0h17l12 3 12 6 7 6-2 4-9 9-4 1-8-6-8-3h-14l-11 4-7 6-4 7-2 14 2 10 6 10 10 6 8 2h9l11-3 1-28h21v39l-10 6-12 4-13 2-16-1-12-4-10-6-9-9-7-14-2-9v-14l3-11 5-10 8-9 11-7 12-4z" fill="#fff"/>
<path transform="translate(534,769)" d="m0 0h22l1 56 2 10 4 6 6 4 4 1h9l8-3 3-1 2-4 3-11 1-58h22v57l-2 12-4 10-9 10-10 5-14 3h-9l-15-3-10-6-8-9-4-9-2-11z" fill="#fff"/>
<path transform="translate(1288,767)" d="m0 0h17l12 3 11 6 7 6-1 4-7 7-6 4-7-6-6-3-4-1h-13l-9 3-9 8-4 9-1 5v9l3 10 6 8 8 5 8 2h9l10-3 9-7 4 2 11 11-7 7-8 5-12 4-8 1h-9l-15-3-12-6-9-8-7-11-4-13v-17l4-13 6-10 7-7 10-6 11-4z" fill="#fff"/>
<path transform="translate(668,769)" d="m0 0h83v17l-1 1h-30v77h-22v-77h-30z" fill="#fff"/>
<path transform="translate(838,786)" d="m0 0h13l9 3 9 8 4 7 2 14-2 10-6 10-8 6-10 3h-9l-11-4-8-7-5-9-1-5v-12l4-11 5-6 8-5z"/>
<path transform="translate(137,786)" d="m0 0h13l10 4 6 5 5 8 2 7v12l-3 9-4 6-7 6-11 4h-9l-10-3-8-6-6-10-2-13 2-11 6-9 7-6z"/>
<path transform="translate(1170,769)" d="m0 0h22v95h-22z" fill="#fff"/>
</svg>
