<?xml version="1.0" encoding="UTF-8"?>
<svg version="1.1" viewBox="0 0 2000 2000" width="500" height="500" xmlns="http://www.w3.org/2000/svg">
<path transform="translate(471,582)" d="m0 0h41l35 2 30 3 24 4 36 8 34 10 24 9 28 13 23 12 24 15 17 13 9 7 14 12 12 11 12 12 7 8 13 16 12 17 10 15 9 15 12 23 11 25 12 36 8 32 2 11h-246l-1-1-7-45-6-31-9-35-14-43-13-30-11-22-12-20-16-21-12-14-20-18-22-14-20-8-11-3-15-2h-18l-20 3-17 6-17 9-11 8-10 8-17 17-14 19-10 15-17 32-13 33-9 28-8 31-9 44-7 51-1 3h-243l3-12 8-27 10-28 12-27 13-25 15-23 7-11 13-17 9-11 24-26 7-7 8-7 13-11 13-10 14-10 19-12 19-11 28-14 30-12 24-8 31-8 31-6 20-3 23-2z" fill="#010101"/>
<path transform="translate(70,1193)" d="m0 0 238 1 3 9 8 32 14 43 10 24 12 25 10 17 10 16 13 16 7 8 1 3 4 2 11 11 14 10 13 8 18 8 15 5 20 2 20-1 14-3 25-10 16-10 14-11 12-12 2-3h2l2-4 14-19 8-13 11-20 10-22 10-26 8-25 8-30 6-28 1-2h231l-9 20-11 23-12 21-12 18-13 18-11 13-7 8-9 10-16 16-8 7-13 11-13 10-16 11-13 8-25 14-22 11-27 11-33 11-26 7-25 5-40 5-22 2-20 1h-26l-40-2-36-4-27-5-31-7-24-7-28-10-25-11-16-8-20-11-24-16-16-12-13-11-16-15-16-16-9-11-10-12-13-18-13-21-10-18-11-23-8-20z" fill="#010101"/>
<path transform="translate(1104,598)" d="m0 0 32 2 35 1h61l57-2 22-1 19 19 7 8 9 9 7 8 11 11 7 8 14 14 7 8 7 7 7 8 9 9 7 8 12 12 7 8 12 12 7 8 8 8 7 8 8 8 7 8 14 14 7 8 12 12 7 8 8 8 7 8 8 8 7 8 12 12 7 8 15 15 7 8 5 5v2h-349l-10-11-7-8-11-12-13-14-2-1 1 2v44h-27l-1-3-1-210-2-21-3-15-5-13-6-8-7-6-11-5-11-3-17-3-20-2-1-1v-22z" fill="#010101"/>
<path transform="translate(1517,1193)" d="m0 0 306 1v243l-6 1-20-1h-27l-30 1-8-8-7-8-11-12-7-8-14-15-12-13-18-20-12-13-14-15-7-8-11-12-12-13-14-15-7-8-12-13-11-12-13-14-7-8-12-13-11-12-3-3z"/>
<path transform="translate(1677,598)" d="m0 0 20 1 24 1 53 1h59l39-1 35-2 1 1v17l-1 6-24 8-16 7-13 10-8 10-8 15-6 18-4 21-3 37-1 30-1 133h-27l-1-119-2-46-4-36-4-19-5-14-7-13-9-10-12-9-17-8-22-7-36-8-1-2v-21z" fill="#030303"/>
<path transform="translate(1188,1194)" d="m0 0h26l1 1 1 70 2 32 3 28 5 22 7 16 6 10 7 9 10 8 16 8 16 6 28 7 18 4 1 1v20l-2 2-73-2h-100l-56 2-1-1v-21l5-3 21-7 17-9 12-9 8-10 7-14 5-16 4-21 3-32 1-22 1-77z" fill="#030303"/>
<path transform="translate(317,986)" d="m0 0h23l5 4 11 14 11 13 8 10 14 17 11 13 1-1v-69l1-1h27v121l-5 1h-16l-6-5-9-11-9-10-11-14-11-13-9-11-7-8-1 71-2 1h-25l-1-1z" fill="#0B0B0B"/>
<path transform="translate(1311,986)" d="m0 0h22l5 5 9 10 8 10 14 17 8 10 11 13 6 7v-72h28v121l-5 1h-16l-6-5-9-11-8-9-9-11-13-16-11-13-6-7-1 71-2 1h-25l-1-1v-120z" fill="#080808"/>
<path transform="translate(175,984)" d="m0 0h16l16 3 16 8 9 7 9 11 7 15 2 9v19l-4 15-6 11-11 12-10 7-11 5-12 3-7 1h-13l-15-3-12-5-9-6-9-8-7-11-5-11-2-8v-22l4-14 6-11 11-12 10-7 12-5 7-2zm0 24-11 4-9 7-7 11-3 12v11l4 13 7 9 7 6 9 4 6 1h12l12-4 9-7 6-8 3-6 1-5v-19l-3-9-7-9-7-6-9-4-4-1z" fill="#060606"/>
<path transform="translate(1071,984)" d="m0 0h18l15 3 16 8 10 8 8 10 5 10 3 9 1 6v18l-3 12-7 14-11 12-10 7-11 5-12 3-7 1h-13l-15-3-12-5-9-6-9-8-8-12-5-14-1-4v-22l5-16 7-12 9-9 10-7 15-6zm1 24-11 4-8 6-7 10-3 8-1 6v10l2 9 6 11 7 7 12 6 5 1h13l12-4 9-7 6-8 4-11v-19l-3-9-6-8-8-7-9-4-4-1z" fill="#050505"/>
<path transform="translate(1885,985)" d="m0 0h2l-2 4-6 7h-2l-2 4-7 7-7 8-12 13-10 11 1 4 13 16 11 14 14 18 11 14 1 2-3 1h-28l-5-5-13-15-11-14-11-13-7 6-8 8-1 7v25l-9 1h-19l-1-1v-120l1-1h27l1 10-1 46 8-7 9-10 7-7 7-8 11-11 7-8 6-5z" fill="#080808"/>
<path transform="translate(555,984)" d="m0 0h18l12 2 13 5 10 7 5 5 1 3-12 11-3 4-6-2-9-6-11-4h-17l-10 3-8 6-7 8-4 10-1 6v10l3 12 8 11 9 6 7 3 5 1h15l10-3 3-3 1-34h25l1 4v29l-1 17-14 8-17 5-13 2h-12l-15-3-12-5-11-7-8-8-8-13-4-11-1-5v-22l4-14 6-11 11-12 10-7 15-6z" fill="#060606"/>
<path transform="translate(684,986)" d="m0 0h27l1 5v64l2 13 5 10 5 4 9 3h12l10-4 6-7 3-8 1-6 1-74h27l1 1v68l-2 17-4 11-5 8-5 6-10 7-12 4-13 2h-11l-12-2-13-5-10-8-7-10-4-9-2-9-1-13v-67z" fill="#0A0A0A"/>
<path transform="translate(1650,984)" d="m0 0h18l15 3 14 7 10 8 1 4-15 15-3 1v-2l-4-2-9-6-9-3h-17l-11 4-6 5h-2l-2 4-5 8-3 12v11l4 13 7 9 10 7 11 3h13l10-3 10-7 3-3 4 2 14 13-1 4-9 8-14 7-12 3-7 1h-14l-15-3-16-8-8-6-8-9-5-9-4-9-2-9v-21l4-14 6-11 11-12 10-7 11-5z" fill="#050505"/>
<path transform="translate(992,526)" d="m0 0h13l2 1v384h-16v-384z" fill="#101010"/>
<path transform="translate(991,1194)" d="m0 0h16v339l-1 1h-11l-4-2z" fill="#101010"/>
<path transform="translate(855,986)" d="m0 0h105l1 1v21l-6 1h-33v98l-7 1h-21l-1-11 1-88h-39z" fill="#0E0E0E"/>
<path transform="translate(1497,986)" d="m0 0h28l1 1v120l-6 1h-22l-1-1z" fill="#141414"/>
<path transform="translate(1214,879)" d="m0 0h1v32h-3l1-31z" fill="#CBCBCB"/>
<path transform="translate(1517,1193)" d="m0 0 55 1v1l-54 1z" fill="#FEFEFE"/>
</svg>
