<?xml version="1.0" encoding="UTF-8"?>
<svg version="1.1" viewBox="0 0 2000 2000" width="500" height="500" xmlns="http://www.w3.org/2000/svg">
<path transform="translate(474,582)" d="m0 0h34l35 2 30 3 35 6 35 8 29 9 24 9 26 12 23 12 21 13 18 13 11 9 14 12 10 9 18 18 9 11 13 16 18 27 10 17 10 19 11 25 11 33 8 31 2 11v4l-58 1h-28l-159-1-6-36-5-29-9-38-8-27-10-29-11-25-8-17-14-24-10-14-13-16-20-20-15-11-15-9-20-8-14-3-8-1h-24l-19 3-16 6-15 8-17 12-8 8h-2v2l-7 6-7 8-12 16-10 15-15 28-10 23-10 28-11 40-8 38-5 32-4 31-2 3h-241l2-10 7-25 9-26 9-22 8-16 11-21 15-23 13-19 10-12 9-11 9-9 7-8 10-10 8-7 11-10 13-10 18-13 19-12 21-12 15-8 28-12 24-9 28-8 26-6 41-7 26-2z" fill="#62A433"/>
<path transform="translate(70,1194)" d="m0 0h238l4 13 9 36 15 44 12 27 10 19 12 20 10 14 9 11 11 12 13 12 13 9 11 7 23 10 13 4 12 1h19l15-2 18-6 19-9 17-12 10-9 13-13 14-19 10-15 14-27 6-13 11-29 8-25 7-26 7-32 1-2h230l-3 9-8 18-10 19-9 16-14 21-14 19-11 13-7 8-28 28-11 9-15 12-20 14-20 12-26 14-19 9-25 10-30 10-27 7-27 5-28 4-33 3h-62l-38-3-35-5-40-9-30-9-32-12-30-14-21-12-27-18-13-10-14-12-10-9-8-7-13-13-9-11-12-14-13-18-13-21-14-25-15-35z" fill="#62A433"/>
<path transform="translate(1306,598)" d="m0 0 7 2 7 7 7 8 8 8 7 8 10 10 7 8 16 17 13 13 7 8 8 8 7 8 12 12 7 8 12 12 7 8 17 17 7 8 7 7 7 8 10 10 7 8 14 14 7 8 12 12 7 8 29 31 15 15 7 8 12 12v2h-348l-8-8-7-8-9-10-10-10-7-8-2-1v26l-1 19h-26l-1-39-1-174-2-23-4-17-8-16-8-7-13-6-31-6-15-2-1-1v-21l20 1 35 1h77l61-2z" fill="#62A433"/>
<path transform="translate(1517,1193)" d="m0 0 305 1 2 1v140l-1 101-1 1h-82l-7-7-7-8-16-17-7-8-12-13-9-10-10-11-7-8-16-17-14-15-9-10-11-12-12-13-11-12-9-10-16-17-33-36-9-10-3-3v-2l-4-2z" fill="#62A433"/>
<path transform="translate(1905,598)" d="m0 0 2 1v22l-9 3-26 10-13 8-4 2v2l-5 5-6 8-7 14-5 15-4 21-3 36-1 33-1 132-1 1h-25l-1-1-1-126-2-41-3-27-3-18-6-20-6-12-8-10-9-8-19-10-24-8-31-7-7-2v-22l28 1 46 1h97l49-2z" fill="#62A433"/>
<path transform="translate(1188,1194)" d="m0 0h27l1 69 2 34 3 28 5 22 8 18 7 11 9 10 11 7 15 7 18 6 25 6 14 3 1 1v20l-1 1-51-1h-130l-31 1h-16l-1-1-1-19 3-3 21-7 23-12 11-10 9-14 6-16 4-16 3-18 2-25 1-21 1-79z" fill="#62A433"/>
<path transform="translate(1311,986)" d="m0 0h23l10 11 7 9 14 17 8 10 11 13 9 11 2 1-1-2v-70h28l1 1v55l-1 65h-24l-8-10-12-14-8-10-14-17-12-14-4-5-2-1 1 10-1 61h-27l-1-5v-115z" fill="#62A433"/>
<path transform="translate(337,985)" d="m0 0 5 2 7 8 11 14 12 14 9 11 11 13 5 7 3 2 1-70h28l1 1v45l-1 75h-23l-11-12-18-22-14-17-11-13-5-6-2-1v71h-27l-1-6v-115z" fill="#62A433"/>
<path transform="translate(1071,984)" d="m0 0h19l14 3 11 5 9 6 8 7 7 10 4 8 3 9 1 6v20l-5 15-6 10-9 10-9 7-13 6-18 4h-14l-16-3-16-8-9-7-7-8-8-16-3-9-1-15 3-17 8-16 9-10 10-8 13-6zm1 24-11 4-10 9-5 7-3 9-1 6v8l2 10 5 9 8 9 10 5 10 2h8l12-3 10-7 7-9 4-11v-19l-5-12-7-8-9-6-9-3z" fill="#62A433"/>
<path transform="translate(174,984)" d="m0 0h19l14 3 11 5 11 7 10 11 6 10 4 12 1 5v20l-5 16-6 10-9 10-7 6-12 6-15 4-6 1h-13l-16-3-10-4-11-7-8-7-7-10-6-13-2-8v-22l5-16 6-10 9-10 11-8 11-5zm1 24-11 4-9 7-6 9-3 9-1 6v9l3 12 7 10 8 7 10 4 6 1h10l11-3 11-8 6-8 3-7 1-5v-17l-4-11-6-8-6-5-10-5-4-1z" fill="#62A433"/>
<path transform="translate(1774,986)" d="m0 0h28l1 1 1 53 8-7 7-8 8-8 7-8 11-11 5-6 6-6h31l-6 7-7 8-14 15-7 8-9 9-2 3h-2l-1 5 9 12 13 16 10 13 14 18 4 5v2l-29 1-4-2-8-10-12-14-11-14-6-7-7 6-8 9-1 26-1 5-24 1-4-1z" fill="#62A433"/>
<path transform="translate(553,984)" d="m0 0h20l12 2 13 5 9 6 6 5v5l-8 7-7 7-6-3-10-6-9-3h-17l-13 5-10 9-5 10-2 9v8l2 11 5 9 6 7 9 5 5 2 6 1h13l13-3 1-4 1-33h25l1 1v40l-1 9-10 6-21 7-14 2h-10l-16-3-12-5-11-7-8-8-8-14-4-11-1-4v-22l4-14 6-11 9-10 10-8 13-6z" fill="#62A433"/>
<path transform="translate(684,986)" d="m0 0h27l1 1v63l2 18 5 10 7 5 8 2h10l11-4 6-7 3-9 1-9v-40l1-30h28v73l-3 17-5 11-7 9-11 8-12 4-12 2h-13l-14-3-10-4-10-8-7-10-5-12-2-18v-68z" fill="#62A433"/>
<path transform="translate(1650,984)" d="m0 0h19l14 3 16 8 9 8-1 5-8 7-6 6-4-1-9-6-9-4-4-1h-15l-11 4-8 6-6 8-4 10-1 13 3 13 6 10 10 8 13 4h12l10-3 10-6 4-4 4 2 14 13-1 4-9 8-14 7-17 4h-16l-15-3-16-8-8-6-7-7-7-12-5-16v-22l5-16 5-9 9-10 7-6 16-8z" fill="#62A433"/>
<path transform="translate(992,527)" d="m0 0h15v384h-15l-1-5v-358z" fill="#64A535"/>
<path transform="translate(992,1194)" d="m0 0h15v339l-1 1-14-1-1-12v-326z" fill="#65A537"/>
<path transform="translate(855,986)" d="m0 0h105l1 1v20l-1 1-11 1h-27v98l-24 1-5-2v-96l-38-1-1-2v-20z" fill="#62A433"/>
<path transform="translate(1497,986)" d="m0 0h28l1 1v119l-1 1h-27l-1-1z" fill="#62A433"/>
</svg>
