<svg xmlns="http://www.w3.org/2000/svg" xmlns:xlink="http://www.w3.org/1999/xlink" width="3001" zoomAndPan="magnify" viewBox="0 0 2250.75 1190.250009" height="1587" preserveAspectRatio="xMidYMid meet" version="1.0"><defs><g/><clipPath id="ba947f5c75"><path d="M 21.699219 86 L 792 86 L 792 1141.835938 L 21.699219 1141.835938 Z M 21.699219 86 " clip-rule="nonzero"/></clipPath><clipPath id="8bf0f36fde"><path d="M 482 48.277344 L 1013 48.277344 L 1013 206 L 482 206 Z M 482 48.277344 " clip-rule="nonzero"/></clipPath><clipPath id="77688454ee"><path d="M 1282.453125 625.222656 L 1313.933594 625.222656 L 1313.933594 670.195312 L 1282.453125 670.195312 Z M 1282.453125 625.222656 " clip-rule="nonzero"/></clipPath><clipPath id="59810982c8"><path d="M 1634.105469 417.054688 L 1665.585938 417.054688 L 1665.585938 462.027344 L 1634.105469 462.027344 Z M 1634.105469 417.054688 " clip-rule="nonzero"/></clipPath><clipPath id="722ecfd715"><path d="M 1314.03125 363.492188 L 1345.511719 363.492188 L 1345.511719 408.464844 L 1314.03125 408.464844 Z M 1314.03125 363.492188 " clip-rule="nonzero"/></clipPath><clipPath id="ac949488d6"><path d="M 1145.003906 462.171875 L 1176.484375 462.171875 L 1176.484375 507.140625 L 1145.003906 507.140625 Z M 1145.003906 462.171875 " clip-rule="nonzero"/></clipPath></defs><path fill="#c6d1e0" d="M 1889.640625 508.039062 C 1896.703125 509.964844 1898.84375 480.652344 1885.578125 484.71875 C 1872.3125 488.785156 1881.296875 505.683594 1889.640625 508.039062 Z M 1889.640625 508.039062 " fill-opacity="1" fill-rule="nonzero"/><path fill="#c6d1e0" d="M 1281.617188 72.023438 C 1281.617188 72.023438 1277.125 78.226562 1287.824219 78.226562 C 1298.734375 78.226562 1321.199219 70.953125 1339.167969 70.953125 C 1357.140625 70.953125 1351.792969 64.75 1348.15625 64.75 C 1344.519531 64.75 1334.675781 54.910156 1320.34375 55.765625 C 1306.007812 56.621094 1306.863281 63.039062 1297.878906 63.039062 C 1288.894531 63.039062 1290.605469 60.257812 1271.777344 61.328125 C 1252.949219 62.183594 1271.777344 70.3125 1281.617188 72.023438 Z M 1281.617188 72.023438 " fill-opacity="1" fill-rule="nonzero"/><path fill="#c6d1e0" d="M 1907.828125 594.042969 C 1913.816406 598.109375 1914.886719 605.167969 1913.816406 616.292969 C 1912.75 627.417969 1902.691406 626.347656 1919.808594 633.410156 C 1936.921875 640.46875 1957.25 652.664062 1952.113281 630.414062 C 1946.980469 608.164062 1951.042969 605.167969 1932.859375 587.839844 C 1914.671875 570.722656 1913.605469 581.847656 1911.679688 567.515625 C 1909.753906 553.394531 1904.617188 527.078125 1897.558594 537.132812 C 1891.355469 546.121094 1886.433594 549.328125 1893.492188 564.519531 C 1900.765625 579.921875 1901.621094 589.976562 1907.828125 594.042969 Z M 1907.828125 594.042969 " fill-opacity="1" fill-rule="nonzero"/><path fill="#c6d1e0" d="M 2082.832031 723.476562 C 2069.566406 709.359375 2047.316406 699.089844 2038.332031 700.160156 C 2029.132812 701.226562 2021.21875 715.347656 2016.082031 710.214844 C 2010.949219 705.078125 1995.757812 680.902344 1987.839844 687.964844 C 1979.710938 695.023438 1988.910156 703.152344 1978.640625 703.152344 C 1968.585938 703.152344 1965.59375 715.347656 1963.453125 699.089844 C 1961.527344 682.828125 1953.398438 674.699219 1951.257812 686.894531 C 1949.332031 699.089844 1948.261719 707.21875 1943.128906 698.019531 C 1937.992188 688.820312 1935 695.023438 1935 685.824219 C 1935 676.625 1914.671875 666.570312 1906.757812 676.625 C 1901.625 683.042969 1899.699219 683.683594 1897.558594 697.804688 C 1895.632812 711.925781 1890.5 734.175781 1901.625 728.183594 C 1912.75 722.195312 1914.886719 727.117188 1919.808594 720.054688 C 1924.941406 712.996094 1930.933594 708.929688 1940.132812 712.996094 C 1949.332031 717.058594 1945.265625 717.058594 1961.3125 714.921875 C 1977.574219 712.996094 1985.488281 712.996094 1996.828125 720.054688 C 2007.953125 727.117188 2030.203125 723.050781 2030.203125 730.109375 C 2030.203125 737.171875 2006.882812 742.304688 2030.203125 749.367188 C 2053.523438 756.425781 2058.441406 772.683594 2065.71875 764.554688 C 2072.777344 756.425781 2082.832031 745.300781 2090.105469 753.429688 C 2097.167969 761.558594 2124.550781 783.808594 2119.417969 771.617188 C 2114.28125 759.421875 2115.351562 748.296875 2131.609375 735.246094 C 2147.871094 722.195312 2143.804688 715.992188 2136.746094 715.992188 C 2129.6875 715.992188 2129.6875 725.191406 2113.425781 727.117188 C 2096.953125 729.683594 2096.097656 737.597656 2082.832031 723.476562 Z M 2082.832031 723.476562 " fill-opacity="1" fill-rule="nonzero"/><path fill="#c6d1e0" d="M 1135.710938 91.277344 C 1136.78125 91.492188 1137.636719 91.707031 1138.492188 91.921875 C 1147.476562 95.558594 1153.894531 90.210938 1154.75 82.933594 C 1164.59375 68.601562 1160.957031 94.703125 1171.867188 90.210938 C 1182.5625 85.714844 1197.96875 74.804688 1210.589844 68.601562 C 1223.210938 62.398438 1195.1875 64.964844 1172.722656 61.328125 C 1150.257812 57.691406 1118.59375 64.109375 1109.609375 70.3125 C 1101.265625 76.089844 1122.660156 87.429688 1135.710938 91.277344 Z M 1135.710938 91.277344 " fill-opacity="1" fill-rule="nonzero"/><path fill="#c6d1e0" d="M 1869.316406 629.34375 C 1863.113281 637.257812 1851.132812 654.589844 1843.003906 660.792969 C 1834.875 666.785156 1820.753906 658.867188 1821.824219 672.988281 C 1822.890625 687.109375 1823.75 693.3125 1824.816406 703.367188 C 1825.886719 713.421875 1827.8125 719.628906 1843.003906 719.628906 C 1858.191406 719.628906 1865.253906 724.761719 1870.386719 722.621094 C 1875.523438 720.695312 1874.453125 711.496094 1880.441406 699.304688 C 1886.433594 687.109375 1896.703125 690.101562 1892.636719 681.117188 C 1888.574219 671.917969 1888.574219 674.058594 1888.574219 664.859375 C 1888.574219 655.660156 1893.707031 661.863281 1890.710938 646.671875 C 1887.503906 631.484375 1876.378906 620.359375 1869.316406 629.34375 Z M 1869.316406 629.34375 " fill-opacity="1" fill-rule="nonzero"/><path fill="#c6d1e0" d="M 1903.976562 769.902344 C 1918.3125 771.613281 1929.222656 769.902344 1939.0625 764.554688 C 1948.90625 759.207031 1944.410156 752.789062 1943.554688 750.222656 C 1942.699219 747.441406 1935.425781 753.003906 1925.585938 754.714844 C 1915.742188 756.425781 1912.960938 756.425781 1900.339844 757.496094 C 1887.71875 758.351562 1895.847656 753.003906 1882.367188 752.144531 C 1868.890625 751.289062 1855.410156 748.507812 1840.007812 743.160156 C 1824.605469 737.8125 1816.6875 733.320312 1805.777344 729.683594 C 1794.867188 726.046875 1804.921875 719.839844 1804.066406 704.4375 C 1803.210938 689.035156 1793.15625 695.453125 1785.238281 690.101562 C 1777.109375 684.753906 1779.890625 672.988281 1783.527344 676.625 C 1787.164062 680.261719 1788.019531 684.753906 1788.019531 665.714844 C 1788.019531 646.886719 1770.90625 634.265625 1760.207031 618.003906 C 1749.296875 601.746094 1751.222656 592.757812 1752.078125 584.628906 C 1752.933594 576.5 1771.972656 591.902344 1781.816406 603.457031 C 1791.65625 615.222656 1791.65625 615.222656 1797.21875 612.441406 C 1802.566406 609.660156 1818.828125 600.675781 1822.464844 586.339844 C 1826.101562 572.007812 1793.582031 543.125 1789.089844 529.644531 C 1784.597656 516.167969 1795.292969 524.296875 1800.855469 515.3125 C 1806.203125 506.328125 1812.625 518.949219 1808.984375 525.152344 C 1805.347656 531.359375 1809.84375 534.996094 1813.480469 541.414062 C 1817.117188 547.617188 1817.117188 541.414062 1820.753906 533.285156 C 1824.390625 525.152344 1821.609375 522.371094 1828.027344 517.023438 C 1834.445312 511.675781 1858.621094 504.402344 1865.039062 498.195312 C 1871.457031 491.992188 1875.949219 484.71875 1883.867188 462.253906 C 1891.996094 439.789062 1883.011719 440.648438 1879.375 432.515625 C 1875.738281 424.386719 1865.039062 410.910156 1858.621094 402.777344 C 1852.417969 394.648438 1857.765625 396.574219 1862.257812 393.792969 C 1866.75 391.011719 1863.113281 384.808594 1852.417969 381.171875 C 1841.503906 377.535156 1843.429688 384.808594 1833.589844 382.882812 C 1823.75 381.171875 1829.097656 373.898438 1839.792969 361.273438 C 1850.707031 348.652344 1845.144531 364.054688 1852.417969 369.402344 C 1859.691406 374.753906 1861.402344 364.910156 1866.75 367.691406 C 1872.097656 370.472656 1883.011719 375.820312 1891.140625 386.519531 C 1899.269531 397.214844 1899.269531 409.839844 1907.398438 408.984375 C 1915.53125 408.128906 1915.53125 404.492188 1919.167969 396.359375 C 1922.804688 388.230469 1909.324219 380.957031 1902.90625 374.753906 C 1896.488281 368.546875 1890.285156 368.546875 1895.632812 362.984375 C 1900.980469 357.636719 1896.488281 349.507812 1899.269531 343.089844 C 1902.050781 336.882812 1911.894531 340.308594 1921.734375 335.816406 C 1931.574219 331.320312 1932.429688 315.917969 1932.429688 299.871094 C 1932.429688 283.613281 1924.300781 276.554688 1919.808594 270.992188 C 1915.316406 265.640625 1925.15625 268.210938 1933.285156 274.628906 C 1941.417969 280.832031 1954.039062 315.0625 1956.605469 328.753906 C 1959.386719 342.234375 1957.460938 342.234375 1968.375 354 C 1979.285156 365.765625 1975.648438 363.839844 1972.011719 377.320312 C 1968.375 390.796875 1959.386719 394.433594 1945.910156 398.070312 C 1932.429688 401.710938 1936.925781 404.277344 1928.792969 417.96875 C 1920.664062 431.445312 1933.285156 432.304688 1940.5625 435.941406 C 1947.835938 439.578125 1951.257812 426.097656 1960.457031 419.679688 C 1969.441406 413.476562 1979.285156 408.769531 1994.6875 408.769531 C 2010.09375 408.769531 1990.195312 388.015625 1989.339844 377.320312 C 1988.484375 366.621094 1987.628906 359.347656 1983.992188 351.21875 C 1980.355469 343.089844 1987.628906 343.089844 1998.324219 337.742188 C 2009.023438 332.390625 2008.167969 321.480469 2001.960938 321.480469 C 1995.757812 321.480469 1990.195312 325.972656 1975.863281 325.117188 C 1961.527344 324.261719 1965.164062 312.496094 1961.527344 308.003906 C 1957.890625 303.507812 1953.398438 293.667969 1952.542969 285.539062 C 1951.6875 277.410156 1939.0625 266.710938 1930.078125 258.582031 C 1921.09375 250.453125 1915.742188 245.101562 1915.742188 248.742188 C 1915.742188 252.378906 1910.394531 247.882812 1897.773438 247.027344 C 1885.148438 246.171875 1882.367188 248.742188 1871.671875 247.882812 C 1860.761719 247.027344 1872.527344 229.058594 1877.019531 216.433594 C 1881.511719 203.8125 1894.136719 211.085938 1903.976562 211.085938 C 1913.816406 211.085938 1918.3125 211.941406 1932.859375 215.578125 C 1947.191406 219.214844 1940.988281 206.59375 1943.769531 196.753906 C 1946.550781 186.910156 1952.753906 192.257812 1960.886719 195.898438 C 1969.015625 199.535156 1971.582031 200.390625 1971.582031 192.257812 C 1971.582031 184.128906 1978.855469 182.417969 1985.0625 189.476562 C 1991.265625 196.753906 1974.148438 211.941406 1974.148438 211.941406 C 1974.148438 211.941406 1968.800781 228.203125 1978.640625 233.550781 C 1988.484375 238.898438 2008.378906 262.433594 2020.148438 270.5625 C 2031.914062 278.691406 2023.785156 257.085938 2023.785156 241.679688 C 2023.785156 226.277344 2013.085938 228.203125 2004.957031 213.867188 C 1996.828125 199.535156 2002.175781 205.738281 2017.578125 205.738281 C 2032.984375 205.738281 2033.839844 200.390625 2037.476562 195.898438 C 2041.113281 191.402344 2043.679688 190.546875 2057.375 190.546875 C 2070.851562 190.546875 2062.722656 185.199219 2056.515625 177.925781 C 2050.3125 170.652344 2037.691406 172.578125 2042.183594 168.085938 C 2046.675781 163.589844 2071.066406 170.867188 2082.617188 175.359375 C 2094.386719 179.851562 2091.605469 176.214844 2089.890625 165.515625 C 2088.179688 154.820312 2078.125 162.734375 2049.457031 152.039062 C 2020.574219 141.339844 1989.125 134.921875 1979.285156 134.921875 C 1969.441406 134.921875 1976.503906 128.71875 1983.777344 128.71875 C 1991.050781 128.71875 1989.125 122.515625 1982.066406 118.878906 C 1974.792969 115.242188 1968.585938 118.023438 1965.804688 126.152344 C 1963.023438 134.28125 1973.9375 135.136719 1953.183594 135.136719 C 1932.429688 135.136719 1917.242188 135.136719 1892.851562 130.644531 C 1868.460938 126.152344 1859.476562 126.152344 1838.722656 125.296875 C 1817.972656 124.441406 1819.898438 115.453125 1798.289062 115.453125 C 1776.679688 115.453125 1783.953125 107.324219 1774.96875 97.484375 C 1765.984375 87.640625 1761.492188 90.210938 1734.535156 90.210938 C 1707.578125 90.210938 1721.910156 100.90625 1727.261719 102.832031 C 1732.609375 104.542969 1747.15625 109.035156 1757 118.234375 C 1766.839844 127.222656 1739.027344 123.585938 1727.261719 124.441406 C 1715.492188 125.296875 1716.5625 118.234375 1702.871094 110.105469 C 1689.390625 101.976562 1656.015625 106.46875 1637.191406 105.613281 C 1618.363281 104.757812 1617.292969 105.613281 1610.234375 92.132812 C 1602.960938 78.65625 1587.769531 85.929688 1567.875 85.929688 C 1547.976562 85.929688 1537.28125 76.089844 1527.4375 69.671875 C 1517.597656 63.464844 1502.191406 62.398438 1480.585938 58.972656 C 1458.976562 55.335938 1470.742188 72.453125 1478.875 73.308594 C 1478.875 73.308594 1487.859375 76.945312 1496.84375 77.800781 C 1505.828125 78.65625 1524.871094 79.511719 1534.710938 91.277344 C 1544.554688 103.046875 1504.117188 98.554688 1486.148438 108.394531 C 1468.175781 118.234375 1453.628906 113.742188 1441.21875 119.089844 C 1428.597656 124.441406 1447.421875 133.425781 1452.128906 145.191406 C 1456.625 156.960938 1452.128906 156.960938 1444 159.527344 C 1435.871094 162.308594 1446.78125 146.902344 1443.144531 142.410156 C 1439.507812 137.917969 1426.03125 114.597656 1415.332031 107.324219 C 1404.421875 100.050781 1406.347656 113.527344 1408.058594 123.585938 C 1409.769531 133.425781 1412.550781 133.425781 1415.332031 140.699219 C 1418.113281 147.972656 1403.566406 140.699219 1396.503906 135.351562 C 1389.230469 130.003906 1365.910156 142.625 1355 137.0625 C 1344.304688 131.714844 1358.636719 133.425781 1358.636719 128.078125 C 1358.636719 122.726562 1346.015625 127.222656 1342.378906 119.089844 C 1338.742188 110.960938 1364.84375 101.121094 1381.101562 98.339844 C 1397.359375 95.558594 1395.4375 95.558594 1395.4375 87.640625 C 1395.4375 79.511719 1366.554688 82.292969 1342.378906 93.847656 C 1317.988281 105.613281 1324.40625 113.742188 1320.769531 121.660156 C 1317.132812 129.789062 1328.898438 130.644531 1334.25 135.136719 C 1339.597656 139.628906 1328.042969 141.339844 1317.132812 144.976562 C 1306.4375 148.617188 1303.65625 144.976562 1291.03125 149.472656 C 1278.410156 153.964844 1285.683594 159.3125 1274.773438 163.804688 C 1264.074219 168.296875 1264.929688 168.296875 1255.945312 171.933594 C 1246.960938 175.570312 1257.65625 158.457031 1270.28125 156.53125 C 1282.902344 154.820312 1279.265625 147.546875 1275.628906 144.765625 C 1271.992188 141.984375 1248.671875 134.921875 1223.425781 127.648438 C 1198.179688 120.375 1157.746094 130.429688 1144.269531 136.632812 C 1130.789062 142.839844 1131.644531 147.546875 1129.933594 156.53125 C 1128.222656 165.515625 1097.414062 178.996094 1082.222656 187.125 C 1066.820312 195.253906 1080.511719 205.953125 1085.003906 213.226562 C 1089.5 220.5 1099.339844 216.863281 1111.960938 213.226562 C 1124.585938 209.589844 1122.660156 224.992188 1124.585938 230.339844 C 1126.296875 235.691406 1133.570312 236.546875 1145.335938 231.195312 C 1157.105469 225.847656 1154.324219 213.226562 1154.324219 205.953125 C 1154.324219 198.679688 1151.542969 195.039062 1159.671875 185.199219 C 1167.800781 175.359375 1175.074219 168.941406 1182.136719 164.445312 C 1189.410156 159.953125 1188.339844 168.085938 1177.644531 177.070312 C 1166.945312 186.054688 1174.003906 188.835938 1179.355469 199.535156 C 1184.703125 210.445312 1195.613281 199.535156 1209.09375 197.820312 C 1222.570312 196.109375 1197.324219 209.589844 1187.484375 209.589844 C 1177.644531 209.589844 1187.484375 220.285156 1181.28125 220.285156 C 1175.074219 220.285156 1174.003906 224.777344 1173.148438 235.691406 C 1172.292969 246.601562 1168.65625 243.820312 1161.382812 246.601562 C 1154.109375 249.382812 1143.410156 250.238281 1131.644531 247.457031 C 1119.878906 244.675781 1120.949219 233.976562 1112.816406 226.703125 C 1104.6875 219.429688 1102.976562 230.339844 1102.976562 234.835938 C 1102.976562 239.328125 1094.847656 249.167969 1091.210938 249.167969 C 1087.574219 249.167969 1076.875 260.078125 1070.457031 269.066406 C 1064.253906 278.050781 1059.761719 272.703125 1057.835938 269.066406 C 1056.125 265.429688 1062.328125 260.078125 1058.691406 251.09375 C 1055.054688 242.109375 1040.71875 234.835938 1045.210938 214.082031 C 1049.707031 193.328125 1039.863281 204.242188 1025.316406 205.953125 C 1010.980469 207.664062 1006.488281 214.082031 1005.417969 219.429688 C 1004.5625 224.777344 996.433594 235.691406 987.449219 245.53125 C 978.460938 255.371094 984.667969 263.503906 989.160156 274.414062 C 993.652344 285.324219 1005.417969 270.777344 1009.054688 261.789062 C 1012.691406 252.804688 1017.1875 248.3125 1022.535156 252.804688 C 1027.882812 257.296875 1014.40625 265.429688 1012.691406 276.125 C 1010.980469 287.035156 1016.332031 285.964844 1028.953125 282.328125 C 1041.574219 278.691406 1035.15625 276.125 1045.210938 280.617188 C 1055.054688 285.109375 1036.226562 288.746094 1024.460938 289.601562 C 1012.691406 290.460938 1017.1875 298.589844 1027.242188 305.863281 C 1037.082031 313.136719 1032.589844 323.835938 1026.386719 324.691406 C 1020.179688 325.546875 1008.414062 327.472656 990.441406 330.894531 C 972.472656 334.53125 988.730469 348.867188 985.09375 356.996094 C 981.457031 365.125 980.601562 383.097656 988.730469 383.953125 C 996.863281 384.808594 996.863281 398.285156 992.367188 402.777344 C 987.875 407.273438 987.019531 411.765625 976.109375 419.894531 C 965.199219 428.023438 973.328125 435.296875 969.90625 445.996094 C 966.269531 456.691406 957.28125 450.488281 946.585938 462.253906 C 935.886719 474.023438 931.179688 483.007812 923.265625 496.484375 C 915.136719 509.964844 914.28125 510.820312 924.121094 527.078125 C 933.960938 543.339844 924.121094 547.832031 915.992188 562.164062 C 907.863281 576.5 918.773438 577.570312 922.195312 589.976562 C 925.832031 602.601562 933.105469 599.820312 935.675781 612.441406 C 938.457031 625.066406 941.878906 628.703125 954.5 637.6875 C 967.125 646.671875 979.746094 659.296875 985.949219 656.515625 C 992.15625 653.734375 1002.210938 646.671875 1022.960938 647.527344 C 1043.714844 648.382812 1036.441406 638.542969 1058.050781 634.90625 C 1079.65625 631.269531 1067.890625 637.6875 1070.671875 643.890625 C 1073.453125 650.308594 1085.003906 656.515625 1101.265625 657.371094 C 1117.523438 658.226562 1104.046875 678.121094 1102.976562 690.746094 C 1102.121094 703.367188 1102.976562 703.367188 1111.105469 714.066406 C 1119.238281 724.761719 1129.933594 749.152344 1132.714844 761.773438 C 1135.496094 774.394531 1129.933594 788.730469 1122.875 800.496094 C 1115.597656 812.265625 1118.378906 839.222656 1133.570312 859.117188 C 1148.972656 879.015625 1139.773438 877.945312 1139.773438 898.695312 C 1139.773438 919.449219 1150.6875 915.8125 1158.601562 927.578125 C 1166.730469 939.347656 1163.09375 960.953125 1170.367188 972.507812 C 1177.644531 984.273438 1190.265625 973.363281 1204.597656 968.015625 C 1218.933594 962.664062 1225.351562 964.375 1242.46875 951.753906 C 1259.582031 939.132812 1273.0625 913.886719 1273.0625 906.828125 C 1273.0625 899.550781 1278.410156 896.984375 1287.394531 893.347656 C 1296.378906 889.710938 1294.667969 866.390625 1293.597656 859.972656 C 1292.742188 853.769531 1295.3125 848.207031 1298.949219 844.570312 C 1302.585938 840.933594 1325.050781 819.324219 1333.179688 810.339844 C 1341.308594 801.351562 1334.035156 788.730469 1332.324219 774.394531 C 1330.609375 760.0625 1325.050781 754.5 1325.050781 737.382812 C 1325.050781 720.269531 1319.699219 721.980469 1349.4375 694.167969 C 1379.175781 666.355469 1406.988281 622.070312 1409.769531 612.226562 C 1412.550781 602.386719 1411.480469 594.257812 1409.769531 586.984375 C 1408.058594 579.707031 1369.335938 594.257812 1360.347656 594.257812 C 1351.363281 594.257812 1335.105469 574.359375 1333.394531 567.300781 C 1331.679688 560.027344 1317.988281 552.964844 1306.4375 542.054688 C 1294.667969 531.359375 1303.65625 515.953125 1294.667969 504.1875 C 1285.683594 492.421875 1281.191406 475.304688 1279.265625 465.464844 C 1277.554688 455.621094 1292.742188 472.738281 1304.511719 486.214844 C 1316.277344 499.695312 1331.46875 524.941406 1335.960938 533.925781 C 1340.453125 542.910156 1344.089844 556.390625 1344.945312 567.300781 C 1345.800781 577.996094 1353.074219 579.921875 1363.773438 579.066406 C 1374.46875 578.210938 1412.335938 558.316406 1425.816406 552.109375 C 1439.292969 545.90625 1455.554688 526.863281 1461.757812 508.894531 C 1467.960938 490.921875 1448.28125 493.488281 1439.292969 484.503906 C 1430.308594 475.519531 1430.308594 484.503906 1419.398438 487.285156 C 1408.699219 490.066406 1399.5 475.519531 1382.386719 459.472656 C 1365.269531 443.214844 1376.179688 448.777344 1379.605469 445.140625 C 1383.027344 441.503906 1400.355469 453.269531 1410.199219 465.035156 C 1420.039062 476.800781 1421.964844 472.308594 1433.519531 472.308594 C 1445.285156 472.308594 1447.851562 477.660156 1463.253906 482.152344 C 1478.660156 486.644531 1486.574219 480.441406 1499.839844 481.722656 C 1512.890625 483.007812 1510.964844 489.425781 1520.164062 503.757812 C 1529.148438 518.09375 1525.511719 513.601562 1545.410156 515.527344 C 1565.304688 517.238281 1550.757812 515.527344 1550.757812 528.148438 C 1550.757812 540.769531 1552.46875 545.265625 1564.238281 560.667969 C 1576.003906 576.070312 1580.496094 604.738281 1584.132812 619.289062 C 1587.769531 633.621094 1595.042969 619.289062 1606.597656 619.289062 C 1618.363281 619.289062 1607.453125 629.128906 1616.4375 643.675781 C 1625.425781 658.011719 1631.84375 639.183594 1631.84375 633.835938 C 1631.84375 628.488281 1626.492188 615.007812 1621.144531 610.515625 C 1615.796875 606.023438 1608.523438 606.878906 1614.726562 599.820312 C 1621.144531 592.546875 1615.582031 585.484375 1615.582031 575.429688 C 1615.582031 565.589844 1616.4375 558.316406 1620.929688 553.820312 C 1625.425781 549.328125 1641.683594 533.070312 1651.523438 521.300781 C 1661.367188 509.535156 1669.496094 507.824219 1682.972656 508.679688 C 1696.453125 509.535156 1685.753906 511.460938 1693.886719 522.160156 C 1702.015625 533.070312 1703.726562 548.257812 1712.710938 559.171875 C 1721.699219 570.082031 1722.554688 557.457031 1729.828125 553.820312 C 1737.101562 550.183594 1732.609375 564.519531 1737.957031 575.429688 C 1743.304688 586.339844 1739.667969 600.675781 1739.667969 610.515625 C 1739.667969 620.359375 1751.4375 630.414062 1758.496094 639.398438 C 1765.769531 648.382812 1762.988281 652.878906 1758.496094 656.515625 C 1754.003906 660.152344 1745.015625 647.527344 1737.742188 640.253906 C 1730.46875 632.980469 1719.773438 637.472656 1727.046875 645.601562 C 1734.320312 653.734375 1738.8125 668.066406 1746.941406 683.472656 C 1755.074219 698.875 1772.1875 716.847656 1783.953125 732.890625 C 1795.722656 749.152344 1833.375 756.210938 1847.921875 756.210938 C 1860.761719 755.570312 1889.640625 768.191406 1903.976562 769.902344 Z M 1279.050781 420.535156 C 1273.703125 431.234375 1270.921875 438.507812 1262.792969 435.941406 C 1254.660156 433.160156 1227.707031 434.226562 1214.226562 429.734375 C 1200.75 425.242188 1180.851562 417.113281 1177.214844 426.953125 C 1173.578125 436.796875 1186.199219 444.925781 1163.738281 436.796875 C 1141.273438 428.664062 1116.882812 418.824219 1114.316406 411.550781 C 1111.535156 404.277344 1123.300781 384.59375 1107.042969 384.59375 C 1090.78125 384.59375 1068.316406 383.738281 1061.042969 389.085938 C 1053.769531 394.433594 1025.957031 404.492188 1016.972656 401.710938 C 1008.84375 399.355469 996.21875 396.359375 1010.769531 389.941406 C 1025.101562 383.738281 1042.21875 387.160156 1044.144531 378.175781 C 1045.855469 369.191406 1031.519531 367.476562 1045.855469 359.347656 C 1060.1875 351.21875 1054.839844 343.945312 1064.679688 339.453125 C 1074.523438 334.960938 1088 335.816406 1095.273438 333.246094 C 1102.550781 330.464844 1092.492188 327.898438 1107.042969 336.027344 C 1121.375 344.160156 1130.363281 359.347656 1137.636719 360.417969 C 1144.910156 361.273438 1149.402344 366.621094 1144.910156 370.257812 C 1140.417969 373.898438 1133.144531 376.464844 1130.574219 376.464844 C 1127.792969 376.464844 1126.082031 383.738281 1128.863281 384.59375 C 1131.644531 385.449219 1137.847656 397.214844 1142.34375 393.578125 C 1146.835938 389.941406 1142.34375 384.59375 1150.472656 381.8125 C 1158.601562 379.03125 1166.730469 375.609375 1163.09375 370.046875 C 1159.457031 364.695312 1155.820312 358.277344 1163.09375 361.914062 C 1170.367188 365.554688 1176.574219 363.628906 1168.441406 355.710938 C 1160.3125 347.582031 1157.53125 347.582031 1147.691406 340.308594 C 1137.847656 333.035156 1126.9375 329.398438 1126.9375 324.046875 C 1126.9375 318.699219 1120.734375 308.644531 1130.574219 312.28125 C 1140.417969 315.917969 1174.648438 334.746094 1174.648438 342.019531 C 1174.648438 349.292969 1183.632812 361.914062 1175.503906 368.121094 C 1167.375 374.324219 1183.632812 376.25 1187.269531 379.886719 C 1190.90625 383.523438 1188.980469 393.367188 1199.035156 391.652344 C 1208.878906 389.941406 1216.152344 390.796875 1210.804688 380.742188 C 1205.457031 370.902344 1196.46875 366.410156 1205.457031 362.773438 C 1214.441406 359.132812 1216.367188 354.640625 1218.933594 370.046875 C 1221.714844 385.449219 1218.078125 390.796875 1239.6875 391.652344 C 1261.292969 392.507812 1275.628906 386.304688 1278.410156 392.507812 C 1280.761719 398.929688 1284.398438 409.839844 1279.050781 420.535156 Z M 1314.136719 353.144531 C 1299.804688 352.289062 1275.414062 347.796875 1263.648438 347.796875 C 1251.878906 347.796875 1247.386719 349.507812 1247.386719 349.507812 C 1237.546875 347.796875 1214.011719 354 1225.78125 338.597656 C 1237.546875 323.191406 1230.273438 303.507812 1244.605469 308.859375 C 1258.941406 314.207031 1260.011719 334.960938 1268.996094 322.335938 C 1277.980469 309.714844 1287.824219 295.378906 1290.605469 305.222656 C 1293.386719 315.0625 1277.980469 323.191406 1296.808594 331.320312 C 1315.851562 339.664062 1328.472656 354 1314.136719 353.144531 Z M 1400.570312 386.304688 C 1387.09375 386.304688 1370.832031 383.523438 1370.832031 376.464844 L 1370.832031 359.347656 C 1363.558594 342.234375 1354.574219 338.597656 1354.574219 326.828125 C 1354.574219 315.0625 1361.847656 305.222656 1376.179688 305.222656 C 1390.515625 305.222656 1397.789062 303.507812 1386.878906 315.917969 C 1376.179688 328.539062 1366.125 329.398438 1380.671875 349.292969 C 1395.222656 369.191406 1414.046875 386.304688 1400.570312 386.304688 Z M 1400.570312 386.304688 " fill-opacity="1" fill-rule="nonzero"/><path fill="#c6d1e0" d="M 2089.890625 853.984375 C 2080.691406 830.664062 2080.691406 812.476562 2075.773438 802.421875 C 2070.636719 792.367188 2074.703125 780.171875 2059.511719 780.171875 C 2053.308594 780.171875 2053.523438 784.238281 2048.386719 797.289062 C 2043.253906 810.339844 2049.457031 834.726562 2036.191406 831.734375 C 2023.140625 828.738281 2016.9375 822.535156 2013.941406 809.484375 C 2010.949219 796.433594 2018.007812 784.238281 2007.953125 784.238281 C 1997.898438 784.238281 1969.441406 777.179688 1962.382812 788.300781 C 1955.324219 799.425781 1964.308594 803.492188 1949.332031 803.492188 C 1934.140625 803.492188 1928.152344 803.492188 1920.023438 813.546875 C 1911.890625 823.601562 1900.765625 852.058594 1857.335938 853.984375 C 1813.90625 855.910156 1836.15625 879.226562 1836.15625 904.472656 C 1836.15625 929.71875 1812.835938 944.910156 1823.105469 954.109375 C 1833.160156 963.308594 1820.109375 975.289062 1841.292969 968.226562 C 1862.472656 961.167969 1881.726562 959.027344 1915.101562 954.109375 C 1948.476562 948.972656 1963.667969 947.046875 1964.734375 963.308594 C 1965.804688 979.566406 1960.671875 968.441406 1973.9375 971.4375 C 1987.199219 974.433594 1972.867188 995.828125 1988.054688 997.753906 C 2003.246094 999.675781 1994.046875 1010.800781 2007.3125 1010.800781 C 2020.359375 1010.800781 2025.496094 1024.921875 2014.371094 1024.921875 C 2003.246094 1024.921875 1986.984375 1048.242188 2003.246094 1040.113281 C 2019.503906 1031.984375 2035.550781 1030.058594 2035.550781 1017.863281 C 2035.550781 1005.667969 2033.625 1004.8125 2052.667969 989.621094 C 2071.921875 974.433594 2116.421875 938.0625 2113.425781 908.753906 C 2110.214844 879.441406 2099.089844 877.300781 2089.890625 853.984375 Z M 2089.890625 853.984375 " fill-opacity="1" fill-rule="nonzero"/><path fill="#c6d1e0" d="M 2222.535156 975.503906 C 2214.40625 971.4375 2214.40625 978.496094 2209.484375 993.6875 C 2204.351562 1008.878906 2179.105469 1014.867188 2175.042969 1018.078125 C 2170.976562 1021.070312 2162.847656 1030.269531 2162.847656 1030.269531 C 2143.59375 1042.464844 2106.152344 1054.660156 2115.351562 1064.714844 C 2124.550781 1074.769531 2130.542969 1068.78125 2152.792969 1057.65625 C 2175.042969 1046.53125 2181.03125 1032.410156 2193.226562 1024.28125 C 2205.421875 1016.152344 2212.480469 1017.222656 2221.464844 1007.164062 C 2230.667969 996.683594 2230.667969 979.566406 2222.535156 975.503906 Z M 2222.535156 975.503906 " fill-opacity="1" fill-rule="nonzero"/><g clip-path="url(#ba947f5c75)"><path fill="#c6d1e0" d="M 779.28125 723.265625 C 763.023438 718.769531 762.167969 724.121094 760.457031 715.132812 C 758.742188 706.148438 747.832031 706.148438 737.992188 706.148438 C 728.148438 706.148438 724.511719 705.292969 716.382812 698.019531 C 708.253906 690.746094 691.136719 689.890625 685.789062 688.175781 C 680.441406 686.464844 683.007812 671.0625 672.3125 656.726562 C 661.398438 642.394531 638.9375 639.613281 624.601562 631.484375 C 610.269531 623.351562 614.761719 591.902344 594.007812 594.472656 C 573.257812 597.253906 571.542969 605.382812 552.503906 595.328125 C 533.675781 585.484375 521.054688 579.066406 511 586.339844 C 501.15625 593.613281 488.535156 607.09375 482.117188 610.730469 C 475.914062 614.367188 465 607.949219 458.796875 609.019531 C 452.59375 609.875 445.320312 602.601562 440.824219 596.398438 C 436.332031 590.191406 448.957031 558.527344 437.1875 558.527344 C 425.421875 558.527344 410.230469 553.179688 410.230469 548.6875 C 410.230469 544.195312 434.621094 517.238281 427.347656 512.746094 C 420.074219 508.253906 405.738281 511.035156 393.117188 528.148438 C 380.496094 545.265625 368.726562 544.410156 362.523438 537.992188 C 356.320312 531.785156 341.769531 494.773438 353.539062 474.023438 C 365.304688 453.269531 384.132812 443.429688 398.464844 444.285156 C 412.800781 445.140625 411.089844 440.648438 425.421875 439.789062 C 439.757812 438.933594 457.941406 443.429688 461.363281 448.777344 C 465 454.125 457.726562 463.109375 466.714844 474.023438 C 475.699219 484.71875 481.046875 480.226562 482.117188 484.71875 C 482.972656 489.210938 474.84375 493.703125 471.417969 493.703125 C 467.78125 493.703125 438.042969 501.835938 449.8125 507.183594 C 461.578125 512.53125 482.332031 508.039062 486.824219 515.3125 C 491.316406 522.585938 472.488281 537.777344 499.445312 538.632812 C 526.402344 539.488281 544.375 543.125 559.777344 543.980469 C 575.179688 544.835938 585.878906 545.691406 587.589844 549.328125 C 589.300781 552.964844 600.210938 535.851562 574.96875 535.851562 C 549.722656 535.851562 530.039062 521.515625 516.347656 518.734375 C 502.871094 515.953125 493.882812 506.96875 493.027344 496.273438 C 492.171875 485.359375 493.882812 477.445312 488.535156 468.460938 C 483.1875 459.472656 469.707031 437.867188 482.332031 428.878906 C 494.953125 419.894531 520.199219 402.777344 526.402344 391.011719 C 532.605469 379.246094 532.605469 376.679688 547.15625 367.691406 C 561.488281 358.707031 578.605469 346.941406 586.734375 338.808594 C 594.863281 330.679688 608.34375 318.058594 611.125 324.476562 C 613.90625 330.679688 626.527344 332.605469 641.71875 327.257812 C 657.121094 321.910156 675.949219 308.429688 659.6875 308.429688 C 643.429688 308.429688 633.585938 303.9375 638.082031 297.734375 C 642.574219 291.527344 627.382812 288.746094 622.675781 289.601562 C 618.183594 290.460938 618.183594 280.617188 633.585938 277.835938 C 648.992188 275.054688 636.367188 288.746094 648.992188 287.679688 C 661.613281 286.820312 669.746094 276.980469 678.730469 275.054688 C 687.714844 273.34375 691.351562 281.257812 679.585938 289.390625 C 667.820312 297.519531 664.179688 294.738281 679.585938 298.375 C 694.988281 302.011719 699.480469 310.140625 708.46875 302.011719 C 717.453125 293.882812 706.757812 291.101562 705.6875 280.402344 C 704.832031 269.707031 707.398438 249.808594 697.554688 242.535156 C 687.714844 235.261719 687.714844 226.277344 687.714844 219.214844 C 687.714844 211.941406 689.425781 196.753906 679.585938 203.8125 C 669.746094 211.085938 661.613281 215.578125 657.976562 211.941406 C 654.339844 208.304688 659.6875 201.03125 651.773438 195.683594 C 643.644531 190.335938 642.789062 182.203125 632.945312 183.058594 C 623.105469 183.914062 613.050781 175.785156 607.699219 187.554688 C 602.351562 199.320312 596.789062 209.160156 595.078125 212.796875 C 593.367188 216.433594 601.28125 229.058594 594.222656 235.261719 C 586.949219 241.464844 567.265625 250.664062 564.484375 256.871094 C 561.703125 263.074219 551.007812 279.335938 548.226562 268.636719 C 545.445312 257.941406 557.210938 241.679688 540.949219 237.1875 C 524.691406 232.695312 512.070312 236.332031 509.5 226.492188 C 506.71875 216.648438 499.660156 207.664062 515.707031 199.535156 C 531.964844 191.402344 548.226562 177.070312 563.414062 175.144531 C 578.820312 173.433594 567.90625 186.054688 580.53125 184.984375 C 593.152344 184.128906 578.820312 177.710938 594.007812 175.144531 C 609.414062 172.363281 606.632812 172.363281 602.136719 167.015625 C 597.644531 161.664062 600.425781 160.808594 611.980469 155.246094 C 623.746094 149.898438 614.761719 146.261719 626.3125 141.769531 C 638.082031 137.277344 640.648438 132.785156 647.066406 132.785156 C 653.269531 132.785156 652.414062 135.566406 648.777344 143.695312 C 645.140625 151.824219 642.574219 157.171875 653.269531 151.824219 C 664.183594 146.476562 669.53125 142.839844 661.402344 150.96875 C 653.269531 159.097656 647.921875 159.097656 636.15625 160.808594 C 624.386719 162.523438 628.027344 164.445312 633.375 170.652344 C 638.722656 176.855469 652.199219 177.925781 656.695312 181.347656 C 661.1875 184.984375 666.535156 197.609375 677.445312 191.191406 C 688.144531 184.984375 680.226562 183.914062 694.5625 177.710938 C 708.894531 171.507812 729.648438 167.871094 727.9375 159.742188 C 726.226562 151.609375 711.675781 147.117188 709.964844 137.277344 C 708.253906 127.433594 729.863281 121.871094 701.835938 117.378906 C 674.023438 112.886719 690.070312 109.25 676.589844 109.25 C 663.113281 109.25 637.867188 109.25 628.882812 113.742188 C 619.894531 118.234375 614.546875 110.960938 610.054688 118.234375 C 605.5625 125.507812 610.910156 135.351562 606.417969 135.351562 C 601.925781 135.351562 593.792969 142.625 590.15625 135.351562 C 586.519531 128.078125 578.390625 121.015625 589.300781 118.234375 C 600 115.453125 601.925781 117.378906 603.636719 109.25 C 605.347656 101.121094 588.230469 101.976562 598.289062 100.265625 C 608.128906 98.554688 612.621094 101.121094 626.101562 101.121094 C 639.578125 101.121094 670.171875 106.46875 674.664062 98.339844 C 679.15625 90.210938 667.390625 90.210938 653.914062 89.351562 C 640.433594 88.496094 616.902344 84.003906 607.058594 88.496094 C 597.21875 92.992188 584.59375 100.265625 580.101562 107.324219 C 575.609375 114.597656 575.609375 105.613281 566.625 107.324219 C 557.640625 109.035156 542.234375 119.089844 550.363281 124.441406 C 558.496094 129.789062 558.496094 136.207031 549.507812 136.207031 C 540.523438 136.207031 537.742188 145.191406 531.539062 145.191406 C 525.332031 145.191406 508.21875 144.335938 516.132812 139.84375 C 524.265625 135.351562 533.25 135.351562 532.394531 124.441406 C 531.539062 113.527344 541.378906 110.105469 541.378906 106.46875 C 541.378906 102.832031 519.769531 114.597656 502.65625 109.25 C 485.539062 103.902344 478.265625 95.773438 461.152344 96.628906 C 444.035156 97.484375 421.570312 119.945312 432.269531 121.871094 C 443.179688 123.585938 451.09375 120.160156 453.019531 125.507812 C 454.734375 130.859375 451.308594 135.351562 457.515625 138.132812 C 463.71875 140.914062 475.484375 147.972656 460.296875 144.335938 C 445.105469 140.699219 452.164062 134.496094 428.84375 133.425781 C 405.527344 132.570312 390.976562 125.296875 366.800781 131.714844 C 342.414062 137.917969 346.050781 143.480469 329.789062 137.917969 C 313.53125 132.570312 279.300781 119.945312 252.34375 125.296875 C 225.386719 130.644531 192.011719 139.628906 183.882812 145.191406 C 175.75 150.539062 192.011719 155.890625 177.675781 156.960938 C 163.34375 157.816406 129.113281 156.960938 136.171875 165.945312 C 143.445312 174.929688 152.433594 175.785156 141.519531 177.710938 C 130.824219 179.421875 116.277344 180.492188 110.925781 188.410156 C 105.578125 196.539062 85.683594 201.03125 98.304688 204.667969 C 110.925781 208.304688 131.679688 216.433594 122.695312 217.289062 C 113.707031 218.148438 67.710938 236.117188 48.027344 240.609375 C 28.132812 245.101562 12.085938 266.710938 29.203125 260.292969 C 51.023438 252.378906 109.429688 234.191406 120.125 229.699219 C 130.824219 225.207031 135.53125 228.84375 134.460938 235.046875 C 133.605469 241.253906 147.082031 232.265625 157.78125 224.136719 C 168.476562 216.007812 168.476562 199.746094 177.675781 205.308594 C 186.664062 210.660156 192.011719 205.308594 199.285156 203.597656 C 206.558594 201.886719 213.621094 197.394531 220.039062 200.816406 C 226.242188 204.453125 242.5 208.089844 246.996094 211.726562 C 251.488281 215.367188 253.199219 223.496094 248.707031 224.351562 C 244.214844 225.207031 243.359375 229.699219 244.214844 236.972656 C 245.070312 244.246094 248.707031 250.453125 239.71875 252.378906 C 230.734375 254.089844 232.445312 265 238.007812 264.144531 C 243.359375 263.289062 246.996094 260.507812 247.851562 255.160156 C 248.707031 249.808594 260.472656 239.753906 258.761719 247.027344 C 257.050781 254.304688 252.558594 261.363281 252.558594 266.925781 C 252.558594 272.273438 246.351562 271.417969 245.28125 276.765625 C 244.425781 282.117188 246.140625 282.117188 250.632812 286.609375 C 255.125 291.101562 252.34375 293.882812 251.488281 303.722656 C 250.632812 313.566406 223.675781 340.734375 220.039062 349.722656 C 216.402344 358.707031 218.328125 371.328125 218.328125 381.171875 C 218.328125 391.011719 214.6875 403.632812 224.53125 407.273438 C 234.371094 410.910156 235.226562 412.621094 235.226562 421.605469 C 235.226562 430.589844 235.226562 441.503906 240.578125 447.707031 C 245.925781 453.910156 243.359375 453.054688 243.359375 463.109375 C 243.359375 473.164062 249.5625 467.601562 250.632812 475.734375 C 251.488281 483.863281 246.140625 487.5 255.125 493.703125 C 264.109375 499.910156 273.953125 504.402344 269.457031 494.558594 C 264.964844 484.71875 262.183594 476.589844 257.691406 462.039062 C 253.199219 447.707031 250.417969 421.605469 255.980469 429.523438 C 261.328125 437.652344 268.601562 462.039062 276.734375 478.941406 C 284.863281 496.058594 294.703125 494.347656 294.703125 506.753906 C 294.703125 519.378906 284.863281 531.144531 304.546875 539.273438 C 324.441406 547.402344 338.777344 564.519531 350.542969 562.59375 C 362.308594 560.882812 369.371094 553.609375 373.863281 561.738281 C 378.355469 569.867188 388.195312 580.566406 399.109375 580.566406 C 409.804688 580.566406 413.441406 587.839844 415.367188 598.535156 C 417.078125 609.234375 424.351562 611.160156 435.265625 614.796875 C 445.960938 618.433594 448.742188 630.199219 456.871094 629.128906 C 465 628.273438 475.699219 624.636719 475.699219 632.765625 C 475.699219 640.898438 479.335938 660.578125 465.859375 673.203125 C 452.378906 685.824219 445.960938 694.808594 453.234375 702.941406 C 460.507812 711.070312 454.089844 719.199219 450.453125 725.402344 C 446.816406 731.609375 453.234375 737.171875 460.296875 747.011719 C 467.570312 756.851562 477.410156 768.621094 483.613281 788.515625 C 489.820312 808.414062 499.019531 815.472656 514.207031 821.890625 C 529.613281 828.097656 541.164062 839.007812 541.164062 854.410156 C 541.164062 869.816406 540.308594 922.015625 540.308594 937.207031 C 540.308594 952.609375 548.4375 967.800781 545.65625 979.566406 C 542.875 991.332031 545.65625 1001.175781 549.296875 1005.667969 C 552.933594 1010.160156 552.078125 1020.003906 552.933594 1030.058594 C 553.789062 1039.898438 564.699219 1032.839844 564.699219 1041.824219 C 564.699219 1050.808594 560.207031 1064.289062 565.554688 1068.78125 C 570.902344 1073.273438 559.351562 1089.535156 583.527344 1104.722656 C 607.914062 1120.128906 609.625 1120.984375 611.339844 1123.550781 C 613.050781 1126.332031 621.179688 1118.203125 621.179688 1122.695312 C 621.179688 1127.1875 607.703125 1140.664062 632.945312 1140.664062 C 658.191406 1140.664062 673.382812 1144.300781 658.191406 1132.535156 C 642.789062 1120.769531 633.800781 1126.332031 631.234375 1114.566406 C 628.453125 1102.796875 625.03125 1104.722656 623.105469 1096.59375 C 621.394531 1088.464844 629.523438 1084.828125 626.742188 1076.695312 C 623.960938 1068.566406 613.265625 1068.566406 614.121094 1060.4375 C 614.976562 1052.308594 621.394531 1044.175781 623.105469 1040.539062 C 624.816406 1036.902344 624.816406 1033.265625 620.324219 1029.84375 C 615.832031 1026.207031 616.6875 1025.351562 623.105469 1023.425781 C 629.523438 1021.714844 630.378906 1024.28125 632.945312 1015.296875 C 635.726562 1006.308594 643.644531 1007.164062 647.28125 1004.597656 C 650.917969 1001.816406 663.539062 998.394531 659.046875 986.628906 C 654.554688 974.859375 645.570312 969.511719 655.410156 969.511719 C 665.25 969.511719 675.308594 968.65625 681.511719 956.035156 C 687.714844 943.410156 685.148438 940.628906 692.421875 930.789062 C 699.695312 920.945312 700.550781 912.816406 700.550781 905.542969 C 700.550781 898.269531 696.914062 891.210938 706.757812 886.714844 C 716.597656 882.222656 749.117188 876.875 753.609375 863.398438 C 758.101562 849.917969 762.59375 835.585938 760.882812 821.035156 C 759.171875 806.703125 758.101562 797.714844 768.15625 785.949219 C 778 774.183594 790.621094 764.339844 790.621094 753.644531 C 790.835938 742.945312 795.542969 727.757812 779.28125 723.265625 Z M 779.28125 723.265625 " fill-opacity="1" fill-rule="nonzero"/></g><g clip-path="url(#8bf0f36fde)"><path fill="#c6d1e0" d="M 945.941406 131.5 C 955.785156 120.804688 953.21875 115.242188 966.695312 109.890625 C 980.175781 104.542969 976.535156 97.269531 974.824219 86.570312 C 973.113281 75.660156 974.824219 80.367188 980.175781 76.730469 C 985.523438 73.09375 993.652344 70.527344 1006.273438 69.457031 C 1018.898438 68.601562 1007.128906 64.109375 1007.128906 58.757812 C 1007.128906 53.410156 998.144531 54.265625 985.523438 55.976562 C 972.898438 57.691406 974.824219 55.976562 965.625 52.339844 C 956.640625 48.703125 903.582031 48.703125 889.890625 48.703125 C 876.414062 48.703125 852.023438 51.484375 839.398438 52.339844 C 826.777344 53.195312 827.632812 52.339844 803.457031 49.558594 C 779.070312 46.777344 715.3125 48.703125 691.78125 51.273438 C 668.460938 54.054688 651.34375 56.621094 635.941406 66.675781 C 620.539062 76.515625 610.695312 72.878906 593.582031 74.804688 C 576.464844 76.515625 574.753906 76.515625 566.625 76.515625 C 558.492188 76.515625 559.351562 72.023438 545.015625 77.371094 C 530.679688 82.722656 535.175781 86.359375 529.613281 79.085938 C 524.261719 71.808594 516.988281 79.085938 491.742188 85.289062 C 466.5 91.492188 500.730469 98.765625 508.859375 101.546875 C 508.859375 101.546875 525.976562 100.691406 535.816406 97.910156 C 545.65625 95.128906 550.148438 101.546875 556.570312 99.621094 C 562.773438 97.910156 564.699219 91.492188 600.640625 83.363281 C 636.582031 75.234375 661.828125 81.652344 676.375 87.855469 C 690.710938 94.058594 690.710938 90.636719 703.332031 82.507812 C 715.957031 74.378906 737.5625 68.171875 760.027344 64.535156 C 782.492188 60.898438 768.15625 69.027344 753.824219 74.378906 C 739.488281 79.726562 726.867188 78.015625 729.433594 87 C 732.214844 95.984375 760.027344 93.203125 768.15625 93.203125 C 776.289062 93.203125 777.144531 105.828125 778 113.101562 C 778.855469 120.375 777.144531 124.011719 778.855469 131.070312 C 780.566406 138.347656 785.058594 137.277344 777.144531 144.550781 C 769.011719 151.824219 764.519531 150.753906 764.519531 163.378906 C 764.519531 176 769.867188 189.476562 782.492188 198.464844 C 795.113281 207.449219 802.386719 208.304688 809.449219 193.972656 C 816.722656 179.636719 833.835938 170.652344 842.824219 166.160156 C 851.808594 161.664062 864.429688 166.160156 876.199219 155.460938 C 887.964844 144.765625 903.15625 149.257812 920.269531 143.695312 C 937.8125 138.773438 935.886719 142.410156 945.945312 131.5 Z M 945.941406 131.5 " fill-opacity="1" fill-rule="nonzero"/></g><path fill="#c6d1e0" d="M 963.914062 152.253906 C 936.957031 155.890625 911.710938 146.902344 916.207031 161.238281 C 920.699219 175.570312 921.554688 197.179688 936.101562 192.6875 C 960.917969 184.984375 988.304688 180.921875 982.097656 169.367188 C 975.46875 157.601562 990.871094 148.617188 963.914062 152.253906 Z M 963.914062 152.253906 " fill-opacity="1" fill-rule="nonzero"/><g clip-path="url(#77688454ee)"><path fill="#33b417" d="M 1298.238281 625.226562 C 1289.523438 625.226562 1282.453125 632.296875 1282.453125 641.011719 C 1282.453125 652.855469 1298.238281 670.332031 1298.238281 670.332031 C 1298.238281 670.332031 1314.023438 652.855469 1314.023438 641.011719 C 1314.023438 632.296875 1306.953125 625.226562 1298.238281 625.226562 Z M 1298.238281 646.652344 C 1295.125 646.652344 1292.601562 644.125 1292.601562 641.011719 C 1292.601562 637.902344 1295.125 635.375 1298.238281 635.375 C 1301.351562 635.375 1303.875 637.902344 1303.875 641.011719 C 1303.875 644.125 1301.351562 646.652344 1298.238281 646.652344 Z M 1298.238281 646.652344 " fill-opacity="1" fill-rule="nonzero"/></g><g fill="#33b417" fill-opacity="1"><g transform="translate(1161.147712, 611.913042)"><g><path d="M 2.015625 -18.671875 L 18.15625 -18.671875 L 18.15625 -14.1875 L 8 -14.1875 L 8 -11.609375 L 16.6875 -11.609375 L 16.6875 -7.328125 L 8 -7.328125 L 8 -4.484375 L 18.34375 -4.484375 L 18.34375 0 L 2.015625 0 Z M 2.015625 -18.671875 "/></g></g></g><g fill="#33b417" fill-opacity="1"><g transform="translate(1181.420185, 611.913042)"><g><path d="M 14.515625 0 L 13.734375 -2.625 L 7.1875 -2.625 L 6.40625 0 L 0.265625 0 L 7.078125 -18.671875 L 14.0625 -18.671875 L 20.875 0 Z M 8.4375 -6.8125 L 12.484375 -6.8125 L 10.53125 -13.46875 L 10.421875 -13.46875 Z M 8.4375 -6.8125 "/></g></g></g><g fill="#33b417" fill-opacity="1"><g transform="translate(1203.212386, 611.913042)"><g><path d="M 9.859375 -19 C 12.242188 -19 14.203125 -18.515625 15.734375 -17.546875 C 17.273438 -16.578125 18.066406 -15.144531 18.109375 -13.25 L 18.109375 -12.921875 L 12.484375 -12.921875 L 12.484375 -13.03125 C 12.484375 -13.570312 12.285156 -14.019531 11.890625 -14.375 C 11.492188 -14.738281 10.882812 -14.921875 10.0625 -14.921875 C 9.269531 -14.921875 8.660156 -14.800781 8.234375 -14.5625 C 7.804688 -14.332031 7.59375 -14.046875 7.59375 -13.703125 C 7.59375 -13.210938 7.882812 -12.847656 8.46875 -12.609375 C 9.050781 -12.378906 9.984375 -12.140625 11.265625 -11.890625 C 12.765625 -11.578125 14 -11.253906 14.96875 -10.921875 C 15.9375 -10.585938 16.78125 -10.039062 17.5 -9.28125 C 18.226562 -8.519531 18.601562 -7.488281 18.625 -6.1875 C 18.625 -3.976562 17.875 -2.335938 16.375 -1.265625 C 14.882812 -0.203125 12.890625 0.328125 10.390625 0.328125 C 7.484375 0.328125 5.21875 -0.160156 3.59375 -1.140625 C 1.976562 -2.117188 1.171875 -3.847656 1.171875 -6.328125 L 6.84375 -6.328125 C 6.84375 -5.378906 7.085938 -4.75 7.578125 -4.4375 C 8.066406 -4.125 8.828125 -3.96875 9.859375 -3.96875 C 10.609375 -3.96875 11.234375 -4.046875 11.734375 -4.203125 C 12.234375 -4.367188 12.484375 -4.707031 12.484375 -5.21875 C 12.484375 -5.664062 12.207031 -6 11.65625 -6.21875 C 11.101562 -6.445312 10.203125 -6.691406 8.953125 -6.953125 C 7.429688 -7.273438 6.171875 -7.613281 5.171875 -7.96875 C 4.179688 -8.320312 3.316406 -8.90625 2.578125 -9.71875 C 1.835938 -10.53125 1.46875 -11.632812 1.46875 -13.03125 C 1.46875 -15.070312 2.257812 -16.578125 3.84375 -17.546875 C 5.425781 -18.515625 7.429688 -19 9.859375 -19 Z M 9.859375 -19 "/></g></g></g><g fill="#33b417" fill-opacity="1"><g transform="translate(1223.484859, 611.913042)"><g><path d="M 12.75 -13.890625 L 12.75 0 L 6.765625 0 L 6.765625 -13.890625 L 0.625 -13.890625 L 0.625 -18.671875 L 18.859375 -18.671875 L 18.859375 -13.890625 Z M 12.75 -13.890625 "/></g></g></g><g fill="#33b417" fill-opacity="1"><g transform="translate(1243.757331, 611.913042)"><g><path d="M 2.015625 -18.671875 L 18.15625 -18.671875 L 18.15625 -14.1875 L 8 -14.1875 L 8 -11.609375 L 16.6875 -11.609375 L 16.6875 -7.328125 L 8 -7.328125 L 8 -4.484375 L 18.34375 -4.484375 L 18.34375 0 L 2.015625 0 Z M 2.015625 -18.671875 "/></g></g></g><g fill="#33b417" fill-opacity="1"><g transform="translate(1264.029799, 611.913042)"><g><path d="M 19.734375 -12.953125 C 19.734375 -11.804688 19.425781 -10.769531 18.8125 -9.84375 C 18.195312 -8.925781 17.300781 -8.25 16.125 -7.8125 L 20.28125 0 L 13.546875 0 L 10.234375 -6.8125 L 8 -6.8125 L 8 0 L 2.015625 0 L 2.015625 -18.671875 L 13.4375 -18.671875 C 14.769531 -18.671875 15.910156 -18.410156 16.859375 -17.890625 C 17.816406 -17.378906 18.535156 -16.6875 19.015625 -15.8125 C 19.492188 -14.9375 19.734375 -13.984375 19.734375 -12.953125 Z M 13.625 -12.703125 C 13.625 -13.191406 13.457031 -13.597656 13.125 -13.921875 C 12.800781 -14.242188 12.40625 -14.40625 11.9375 -14.40625 L 8 -14.40625 L 8 -10.96875 L 11.9375 -10.96875 C 12.40625 -10.96875 12.800781 -11.132812 13.125 -11.46875 C 13.457031 -11.800781 13.625 -12.210938 13.625 -12.703125 Z M 13.625 -12.703125 "/></g></g></g><g fill="#33b417" fill-opacity="1"><g transform="translate(1285.821997, 611.913042)"><g><path d="M 15.359375 0 L 7.515625 -9.0625 L 7.515625 0 L 2.015625 0 L 2.015625 -18.671875 L 7.25 -18.671875 L 15.09375 -9.46875 L 15.09375 -18.671875 L 20.59375 -18.671875 L 20.59375 0 Z M 15.359375 0 "/></g></g></g><g fill="#33b417" fill-opacity="1"><g transform="translate(1309.1068, 611.913042)"><g/></g></g><g fill="#33b417" fill-opacity="1"><g transform="translate(1318.822518, 611.913042)"><g><path d="M 14.515625 0 L 13.734375 -2.625 L 7.1875 -2.625 L 6.40625 0 L 0.265625 0 L 7.078125 -18.671875 L 14.0625 -18.671875 L 20.875 0 Z M 8.4375 -6.8125 L 12.484375 -6.8125 L 10.53125 -13.46875 L 10.421875 -13.46875 Z M 8.4375 -6.8125 "/></g></g></g><g fill="#33b417" fill-opacity="1"><g transform="translate(1340.614716, 611.913042)"><g><path d="M 2.015625 -18.671875 L 17.09375 -18.671875 L 17.09375 -14.1875 L 8 -14.1875 L 8 -10.984375 L 15.828125 -10.984375 L 15.828125 -6.703125 L 8 -6.703125 L 8 0 L 2.015625 0 Z M 2.015625 -18.671875 "/></g></g></g><g fill="#33b417" fill-opacity="1"><g transform="translate(1359.394578, 611.913042)"><g><path d="M 19.734375 -12.953125 C 19.734375 -11.804688 19.425781 -10.769531 18.8125 -9.84375 C 18.195312 -8.925781 17.300781 -8.25 16.125 -7.8125 L 20.28125 0 L 13.546875 0 L 10.234375 -6.8125 L 8 -6.8125 L 8 0 L 2.015625 0 L 2.015625 -18.671875 L 13.4375 -18.671875 C 14.769531 -18.671875 15.910156 -18.410156 16.859375 -17.890625 C 17.816406 -17.378906 18.535156 -16.6875 19.015625 -15.8125 C 19.492188 -14.9375 19.734375 -13.984375 19.734375 -12.953125 Z M 13.625 -12.703125 C 13.625 -13.191406 13.457031 -13.597656 13.125 -13.921875 C 12.800781 -14.242188 12.40625 -14.40625 11.9375 -14.40625 L 8 -14.40625 L 8 -10.96875 L 11.9375 -10.96875 C 12.40625 -10.96875 12.800781 -11.132812 13.125 -11.46875 C 13.457031 -11.800781 13.625 -12.210938 13.625 -12.703125 Z M 13.625 -12.703125 "/></g></g></g><g fill="#33b417" fill-opacity="1"><g transform="translate(1381.186776, 611.913042)"><g><path d="M 2.28125 0 L 2.28125 -18.671875 L 8.28125 -18.671875 L 8.28125 0 Z M 2.28125 0 "/></g></g></g><g fill="#33b417" fill-opacity="1"><g transform="translate(1392.422238, 611.913042)"><g><path d="M 10.90625 -19 C 13.675781 -19 15.863281 -18.304688 17.46875 -16.921875 C 19.082031 -15.535156 19.890625 -13.554688 19.890625 -10.984375 L 14.171875 -10.984375 C 14.171875 -12.078125 13.882812 -12.9375 13.3125 -13.5625 C 12.738281 -14.195312 11.929688 -14.515625 10.890625 -14.515625 C 9.671875 -14.515625 8.773438 -14.132812 8.203125 -13.375 C 7.640625 -12.613281 7.359375 -11.554688 7.359375 -10.203125 L 7.359375 -8.46875 C 7.359375 -7.125 7.640625 -6.066406 8.203125 -5.296875 C 8.773438 -4.535156 9.648438 -4.15625 10.828125 -4.15625 C 11.984375 -4.15625 12.859375 -4.453125 13.453125 -5.046875 C 14.054688 -5.640625 14.359375 -6.484375 14.359375 -7.578125 L 19.890625 -7.578125 C 19.890625 -5.023438 19.109375 -3.066406 17.546875 -1.703125 C 15.984375 -0.347656 13.769531 0.328125 10.90625 0.328125 C 7.726562 0.328125 5.316406 -0.484375 3.671875 -2.109375 C 2.035156 -3.742188 1.21875 -6.15625 1.21875 -9.34375 C 1.21875 -12.519531 2.035156 -14.921875 3.671875 -16.546875 C 5.316406 -18.179688 7.726562 -19 10.90625 -19 Z M 10.90625 -19 "/></g></g></g><g fill="#33b417" fill-opacity="1"><g transform="translate(1414.214436, 611.913042)"><g><path d="M 14.515625 0 L 13.734375 -2.625 L 7.1875 -2.625 L 6.40625 0 L 0.265625 0 L 7.078125 -18.671875 L 14.0625 -18.671875 L 20.875 0 Z M 8.4375 -6.8125 L 12.484375 -6.8125 L 10.53125 -13.46875 L 10.421875 -13.46875 Z M 8.4375 -6.8125 "/></g></g></g><g clip-path="url(#59810982c8)"><path fill="#33b417" d="M 1649.890625 417.058594 C 1641.175781 417.058594 1634.105469 424.128906 1634.105469 432.847656 C 1634.105469 444.6875 1649.890625 462.164062 1649.890625 462.164062 C 1649.890625 462.164062 1665.679688 444.6875 1665.679688 432.847656 C 1665.679688 424.128906 1658.609375 417.058594 1649.890625 417.058594 Z M 1649.890625 438.484375 C 1646.777344 438.484375 1644.253906 435.960938 1644.253906 432.847656 C 1644.253906 429.734375 1646.777344 427.207031 1649.890625 427.207031 C 1653.003906 427.207031 1655.53125 429.734375 1655.53125 432.847656 C 1655.53125 435.960938 1653.003906 438.484375 1649.890625 438.484375 Z M 1649.890625 438.484375 " fill-opacity="1" fill-rule="nonzero"/></g><g fill="#33b417" fill-opacity="1"><g transform="translate(1473.763764, 394.704048)"><g><path d="M 9.859375 -19 C 12.242188 -19 14.203125 -18.515625 15.734375 -17.546875 C 17.273438 -16.578125 18.066406 -15.144531 18.109375 -13.25 L 18.109375 -12.921875 L 12.484375 -12.921875 L 12.484375 -13.03125 C 12.484375 -13.570312 12.285156 -14.019531 11.890625 -14.375 C 11.492188 -14.738281 10.882812 -14.921875 10.0625 -14.921875 C 9.269531 -14.921875 8.660156 -14.800781 8.234375 -14.5625 C 7.804688 -14.332031 7.59375 -14.046875 7.59375 -13.703125 C 7.59375 -13.210938 7.882812 -12.847656 8.46875 -12.609375 C 9.050781 -12.378906 9.984375 -12.140625 11.265625 -11.890625 C 12.765625 -11.578125 14 -11.253906 14.96875 -10.921875 C 15.9375 -10.585938 16.78125 -10.039062 17.5 -9.28125 C 18.226562 -8.519531 18.601562 -7.488281 18.625 -6.1875 C 18.625 -3.976562 17.875 -2.335938 16.375 -1.265625 C 14.882812 -0.203125 12.890625 0.328125 10.390625 0.328125 C 7.484375 0.328125 5.21875 -0.160156 3.59375 -1.140625 C 1.976562 -2.117188 1.171875 -3.847656 1.171875 -6.328125 L 6.84375 -6.328125 C 6.84375 -5.378906 7.085938 -4.75 7.578125 -4.4375 C 8.066406 -4.125 8.828125 -3.96875 9.859375 -3.96875 C 10.609375 -3.96875 11.234375 -4.046875 11.734375 -4.203125 C 12.234375 -4.367188 12.484375 -4.707031 12.484375 -5.21875 C 12.484375 -5.664062 12.207031 -6 11.65625 -6.21875 C 11.101562 -6.445312 10.203125 -6.691406 8.953125 -6.953125 C 7.429688 -7.273438 6.171875 -7.613281 5.171875 -7.96875 C 4.179688 -8.320312 3.316406 -8.90625 2.578125 -9.71875 C 1.835938 -10.53125 1.46875 -11.632812 1.46875 -13.03125 C 1.46875 -15.070312 2.257812 -16.578125 3.84375 -17.546875 C 5.425781 -18.515625 7.429688 -19 9.859375 -19 Z M 9.859375 -19 "/></g></g></g><g fill="#33b417" fill-opacity="1"><g transform="translate(1494.036236, 394.704048)"><g><path d="M 11.296875 -19 C 14.515625 -19 17 -18.175781 18.75 -16.53125 C 20.507812 -14.882812 21.390625 -12.488281 21.390625 -9.34375 C 21.390625 -6.1875 20.507812 -3.785156 18.75 -2.140625 C 17 -0.492188 14.515625 0.328125 11.296875 0.328125 C 8.066406 0.328125 5.578125 -0.488281 3.828125 -2.125 C 2.085938 -3.769531 1.21875 -6.175781 1.21875 -9.34375 C 1.21875 -12.507812 2.085938 -14.910156 3.828125 -16.546875 C 5.578125 -18.179688 8.066406 -19 11.296875 -19 Z M 11.296875 -14.515625 C 10.003906 -14.515625 9.023438 -14.125 8.359375 -13.34375 C 7.691406 -12.570312 7.359375 -11.523438 7.359375 -10.203125 L 7.359375 -8.46875 C 7.359375 -7.144531 7.691406 -6.09375 8.359375 -5.3125 C 9.023438 -4.539062 10.003906 -4.15625 11.296875 -4.15625 C 12.578125 -4.15625 13.554688 -4.539062 14.234375 -5.3125 C 14.910156 -6.09375 15.25 -7.144531 15.25 -8.46875 L 15.25 -10.203125 C 15.25 -11.523438 14.910156 -12.570312 14.234375 -13.34375 C 13.554688 -14.125 12.578125 -14.515625 11.296875 -14.515625 Z M 11.296875 -14.515625 "/></g></g></g><g fill="#33b417" fill-opacity="1"><g transform="translate(1517.321044, 394.704048)"><g><path d="M 20.59375 -7.515625 C 20.59375 -4.960938 19.785156 -3.015625 18.171875 -1.671875 C 16.566406 -0.335938 14.28125 0.328125 11.3125 0.328125 C 8.34375 0.328125 6.050781 -0.335938 4.4375 -1.671875 C 2.820312 -3.015625 2.015625 -4.960938 2.015625 -7.515625 L 2.015625 -18.671875 L 8 -18.671875 L 8 -7.59375 C 8 -6.550781 8.28125 -5.71875 8.84375 -5.09375 C 9.40625 -4.46875 10.222656 -4.15625 11.296875 -4.15625 C 12.359375 -4.15625 13.175781 -4.46875 13.75 -5.09375 C 14.320312 -5.726562 14.609375 -6.5625 14.609375 -7.59375 L 14.609375 -18.671875 L 20.59375 -18.671875 Z M 20.59375 -7.515625 "/></g></g></g><g fill="#33b417" fill-opacity="1"><g transform="translate(1540.605856, 394.704048)"><g><path d="M 12.75 -13.890625 L 12.75 0 L 6.765625 0 L 6.765625 -13.890625 L 0.625 -13.890625 L 0.625 -18.671875 L 18.859375 -18.671875 L 18.859375 -13.890625 Z M 12.75 -13.890625 "/></g></g></g><g fill="#33b417" fill-opacity="1"><g transform="translate(1560.878324, 394.704048)"><g><path d="M 14.609375 0 L 14.609375 -7.078125 L 8 -7.078125 L 8 0 L 2.015625 0 L 2.015625 -18.671875 L 8 -18.671875 L 8 -11.859375 L 14.609375 -11.859375 L 14.609375 -18.671875 L 20.59375 -18.671875 L 20.59375 0 Z M 14.609375 0 "/></g></g></g><g fill="#33b417" fill-opacity="1"><g transform="translate(1584.163128, 394.704048)"><g/></g></g><g fill="#33b417" fill-opacity="1"><g transform="translate(1593.878845, 394.704048)"><g><path d="M 10.90625 -19 C 13.675781 -19 15.863281 -18.304688 17.46875 -16.921875 C 19.082031 -15.535156 19.890625 -13.554688 19.890625 -10.984375 L 14.171875 -10.984375 C 14.171875 -12.078125 13.882812 -12.9375 13.3125 -13.5625 C 12.738281 -14.195312 11.929688 -14.515625 10.890625 -14.515625 C 9.671875 -14.515625 8.773438 -14.132812 8.203125 -13.375 C 7.640625 -12.613281 7.359375 -11.554688 7.359375 -10.203125 L 7.359375 -8.46875 C 7.359375 -7.125 7.640625 -6.066406 8.203125 -5.296875 C 8.773438 -4.535156 9.648438 -4.15625 10.828125 -4.15625 C 11.984375 -4.15625 12.859375 -4.453125 13.453125 -5.046875 C 14.054688 -5.640625 14.359375 -6.484375 14.359375 -7.578125 L 19.890625 -7.578125 C 19.890625 -5.023438 19.109375 -3.066406 17.546875 -1.703125 C 15.984375 -0.347656 13.769531 0.328125 10.90625 0.328125 C 7.726562 0.328125 5.316406 -0.484375 3.671875 -2.109375 C 2.035156 -3.742188 1.21875 -6.15625 1.21875 -9.34375 C 1.21875 -12.519531 2.035156 -14.921875 3.671875 -16.546875 C 5.316406 -18.179688 7.726562 -19 10.90625 -19 Z M 10.90625 -19 "/></g></g></g><g fill="#33b417" fill-opacity="1"><g transform="translate(1615.671043, 394.704048)"><g><path d="M 2.015625 -18.671875 L 18.15625 -18.671875 L 18.15625 -14.1875 L 8 -14.1875 L 8 -11.609375 L 16.6875 -11.609375 L 16.6875 -7.328125 L 8 -7.328125 L 8 -4.484375 L 18.34375 -4.484375 L 18.34375 0 L 2.015625 0 Z M 2.015625 -18.671875 "/></g></g></g><g fill="#33b417" fill-opacity="1"><g transform="translate(1635.943511, 394.704048)"><g><path d="M 15.359375 0 L 7.515625 -9.0625 L 7.515625 0 L 2.015625 0 L 2.015625 -18.671875 L 7.25 -18.671875 L 15.09375 -9.46875 L 15.09375 -18.671875 L 20.59375 -18.671875 L 20.59375 0 Z M 15.359375 0 "/></g></g></g><g fill="#33b417" fill-opacity="1"><g transform="translate(1659.228315, 394.704048)"><g><path d="M 12.75 -13.890625 L 12.75 0 L 6.765625 0 L 6.765625 -13.890625 L 0.625 -13.890625 L 0.625 -18.671875 L 18.859375 -18.671875 L 18.859375 -13.890625 Z M 12.75 -13.890625 "/></g></g></g><g fill="#33b417" fill-opacity="1"><g transform="translate(1679.500783, 394.704048)"><g><path d="M 19.734375 -12.953125 C 19.734375 -11.804688 19.425781 -10.769531 18.8125 -9.84375 C 18.195312 -8.925781 17.300781 -8.25 16.125 -7.8125 L 20.28125 0 L 13.546875 0 L 10.234375 -6.8125 L 8 -6.8125 L 8 0 L 2.015625 0 L 2.015625 -18.671875 L 13.4375 -18.671875 C 14.769531 -18.671875 15.910156 -18.410156 16.859375 -17.890625 C 17.816406 -17.378906 18.535156 -16.6875 19.015625 -15.8125 C 19.492188 -14.9375 19.734375 -13.984375 19.734375 -12.953125 Z M 13.625 -12.703125 C 13.625 -13.191406 13.457031 -13.597656 13.125 -13.921875 C 12.800781 -14.242188 12.40625 -14.40625 11.9375 -14.40625 L 8 -14.40625 L 8 -10.96875 L 11.9375 -10.96875 C 12.40625 -10.96875 12.800781 -11.132812 13.125 -11.46875 C 13.457031 -11.800781 13.625 -12.210938 13.625 -12.703125 Z M 13.625 -12.703125 "/></g></g></g><g fill="#33b417" fill-opacity="1"><g transform="translate(1701.292981, 394.704048)"><g><path d="M 14.515625 0 L 13.734375 -2.625 L 7.1875 -2.625 L 6.40625 0 L 0.265625 0 L 7.078125 -18.671875 L 14.0625 -18.671875 L 20.875 0 Z M 8.4375 -6.8125 L 12.484375 -6.8125 L 10.53125 -13.46875 L 10.421875 -13.46875 Z M 8.4375 -6.8125 "/></g></g></g><g fill="#33b417" fill-opacity="1"><g transform="translate(1723.085178, 394.704048)"><g><path d="M 2.015625 -18.671875 L 8 -18.671875 L 8 -4.78125 L 17.59375 -4.78125 L 17.59375 0 L 2.015625 0 Z M 2.015625 -18.671875 "/></g></g></g><g fill="#33b417" fill-opacity="1"><g transform="translate(1741.865057, 394.704048)"><g/></g></g><g fill="#33b417" fill-opacity="1"><g transform="translate(1751.580774, 394.704048)"><g><path d="M 14.515625 0 L 13.734375 -2.625 L 7.1875 -2.625 L 6.40625 0 L 0.265625 0 L 7.078125 -18.671875 L 14.0625 -18.671875 L 20.875 0 Z M 8.4375 -6.8125 L 12.484375 -6.8125 L 10.53125 -13.46875 L 10.421875 -13.46875 Z M 8.4375 -6.8125 "/></g></g></g><g fill="#33b417" fill-opacity="1"><g transform="translate(1773.372987, 394.704048)"><g><path d="M 9.859375 -19 C 12.242188 -19 14.203125 -18.515625 15.734375 -17.546875 C 17.273438 -16.578125 18.066406 -15.144531 18.109375 -13.25 L 18.109375 -12.921875 L 12.484375 -12.921875 L 12.484375 -13.03125 C 12.484375 -13.570312 12.285156 -14.019531 11.890625 -14.375 C 11.492188 -14.738281 10.882812 -14.921875 10.0625 -14.921875 C 9.269531 -14.921875 8.660156 -14.800781 8.234375 -14.5625 C 7.804688 -14.332031 7.59375 -14.046875 7.59375 -13.703125 C 7.59375 -13.210938 7.882812 -12.847656 8.46875 -12.609375 C 9.050781 -12.378906 9.984375 -12.140625 11.265625 -11.890625 C 12.765625 -11.578125 14 -11.253906 14.96875 -10.921875 C 15.9375 -10.585938 16.78125 -10.039062 17.5 -9.28125 C 18.226562 -8.519531 18.601562 -7.488281 18.625 -6.1875 C 18.625 -3.976562 17.875 -2.335938 16.375 -1.265625 C 14.882812 -0.203125 12.890625 0.328125 10.390625 0.328125 C 7.484375 0.328125 5.21875 -0.160156 3.59375 -1.140625 C 1.976562 -2.117188 1.171875 -3.847656 1.171875 -6.328125 L 6.84375 -6.328125 C 6.84375 -5.378906 7.085938 -4.75 7.578125 -4.4375 C 8.066406 -4.125 8.828125 -3.96875 9.859375 -3.96875 C 10.609375 -3.96875 11.234375 -4.046875 11.734375 -4.203125 C 12.234375 -4.367188 12.484375 -4.707031 12.484375 -5.21875 C 12.484375 -5.664062 12.207031 -6 11.65625 -6.21875 C 11.101562 -6.445312 10.203125 -6.691406 8.953125 -6.953125 C 7.429688 -7.273438 6.171875 -7.613281 5.171875 -7.96875 C 4.179688 -8.320312 3.316406 -8.90625 2.578125 -9.71875 C 1.835938 -10.53125 1.46875 -11.632812 1.46875 -13.03125 C 1.46875 -15.070312 2.257812 -16.578125 3.84375 -17.546875 C 5.425781 -18.515625 7.429688 -19 9.859375 -19 Z M 9.859375 -19 "/></g></g></g><g fill="#33b417" fill-opacity="1"><g transform="translate(1793.645472, 394.704048)"><g><path d="M 2.28125 0 L 2.28125 -18.671875 L 8.28125 -18.671875 L 8.28125 0 Z M 2.28125 0 "/></g></g></g><g fill="#33b417" fill-opacity="1"><g transform="translate(1804.88095, 394.704048)"><g><path d="M 14.515625 0 L 13.734375 -2.625 L 7.1875 -2.625 L 6.40625 0 L 0.265625 0 L 7.078125 -18.671875 L 14.0625 -18.671875 L 20.875 0 Z M 8.4375 -6.8125 L 12.484375 -6.8125 L 10.53125 -13.46875 L 10.421875 -13.46875 Z M 8.4375 -6.8125 "/></g></g></g><g clip-path="url(#722ecfd715)"><path fill="#33b417" d="M 1329.816406 363.496094 C 1321.101562 363.496094 1314.03125 370.566406 1314.03125 379.285156 C 1314.03125 391.125 1329.816406 408.601562 1329.816406 408.601562 C 1329.816406 408.601562 1345.605469 391.125 1345.605469 379.285156 C 1345.605469 370.566406 1338.535156 363.496094 1329.816406 363.496094 Z M 1329.816406 384.921875 C 1326.707031 384.921875 1324.179688 382.394531 1324.179688 379.285156 C 1324.179688 376.171875 1326.707031 373.644531 1329.816406 373.644531 C 1332.929688 373.644531 1335.457031 376.171875 1335.457031 379.285156 C 1335.457031 382.394531 1332.929688 384.921875 1329.816406 384.921875 Z M 1329.816406 384.921875 " fill-opacity="1" fill-rule="nonzero"/></g><g fill="#33b417" fill-opacity="1"><g transform="translate(1223.898308, 349.91886)"><g><path d="M 18.046875 0 L 18.046875 -6.734375 C 18.046875 -7.566406 18.078125 -8.421875 18.140625 -9.296875 C 18.203125 -10.171875 18.269531 -10.90625 18.34375 -11.5 C 18.414062 -12.101562 18.460938 -12.484375 18.484375 -12.640625 L 18.375 -12.640625 L 14.921875 0 L 10.234375 0 L 6.765625 -12.625 L 6.65625 -12.625 C 6.664062 -12.457031 6.710938 -12.078125 6.796875 -11.484375 C 6.878906 -10.898438 6.957031 -10.171875 7.03125 -9.296875 C 7.101562 -8.421875 7.140625 -7.566406 7.140625 -6.734375 L 7.140625 0 L 1.625 0 L 1.625 -18.671875 L 10.09375 -18.671875 L 12.921875 -7.890625 L 13.03125 -7.890625 L 15.828125 -18.671875 L 24 -18.671875 L 24 0 Z M 18.046875 0 "/></g></g></g><g fill="#33b417" fill-opacity="1"><g transform="translate(1250.195452, 349.91886)"><g><path d="M 2.28125 0 L 2.28125 -18.671875 L 8.28125 -18.671875 L 8.28125 0 Z M 2.28125 0 "/></g></g></g><g fill="#33b417" fill-opacity="1"><g transform="translate(1261.430918, 349.91886)"><g><path d="M 10.09375 -18.671875 C 16.625 -18.671875 19.890625 -15.5625 19.890625 -9.34375 C 19.890625 -3.113281 16.625 0 10.09375 0 L 2.015625 0 L 2.015625 -18.671875 Z M 8 -4.484375 L 9.984375 -4.484375 C 12.503906 -4.484375 13.765625 -5.828125 13.765625 -8.515625 L 13.765625 -10.15625 C 13.765625 -12.84375 12.503906 -14.1875 9.984375 -14.1875 L 8 -14.1875 Z M 8 -4.484375 "/></g></g></g><g fill="#33b417" fill-opacity="1"><g transform="translate(1283.22312, 349.91886)"><g><path d="M 10.09375 -18.671875 C 16.625 -18.671875 19.890625 -15.5625 19.890625 -9.34375 C 19.890625 -3.113281 16.625 0 10.09375 0 L 2.015625 0 L 2.015625 -18.671875 Z M 8 -4.484375 L 9.984375 -4.484375 C 12.503906 -4.484375 13.765625 -5.828125 13.765625 -8.515625 L 13.765625 -10.15625 C 13.765625 -12.84375 12.503906 -14.1875 9.984375 -14.1875 L 8 -14.1875 Z M 8 -4.484375 "/></g></g></g><g fill="#33b417" fill-opacity="1"><g transform="translate(1305.015321, 349.91886)"><g><path d="M 2.015625 -18.671875 L 8 -18.671875 L 8 -4.78125 L 17.59375 -4.78125 L 17.59375 0 L 2.015625 0 Z M 2.015625 -18.671875 "/></g></g></g><g fill="#33b417" fill-opacity="1"><g transform="translate(1323.795184, 349.91886)"><g><path d="M 2.015625 -18.671875 L 18.15625 -18.671875 L 18.15625 -14.1875 L 8 -14.1875 L 8 -11.609375 L 16.6875 -11.609375 L 16.6875 -7.328125 L 8 -7.328125 L 8 -4.484375 L 18.34375 -4.484375 L 18.34375 0 L 2.015625 0 Z M 2.015625 -18.671875 "/></g></g></g><g fill="#33b417" fill-opacity="1"><g transform="translate(1344.067652, 349.91886)"><g/></g></g><g fill="#33b417" fill-opacity="1"><g transform="translate(1353.783369, 349.91886)"><g><path d="M 2.015625 -18.671875 L 18.15625 -18.671875 L 18.15625 -14.1875 L 8 -14.1875 L 8 -11.609375 L 16.6875 -11.609375 L 16.6875 -7.328125 L 8 -7.328125 L 8 -4.484375 L 18.34375 -4.484375 L 18.34375 0 L 2.015625 0 Z M 2.015625 -18.671875 "/></g></g></g><g fill="#33b417" fill-opacity="1"><g transform="translate(1374.055837, 349.91886)"><g><path d="M 14.515625 0 L 13.734375 -2.625 L 7.1875 -2.625 L 6.40625 0 L 0.265625 0 L 7.078125 -18.671875 L 14.0625 -18.671875 L 20.875 0 Z M 8.4375 -6.8125 L 12.484375 -6.8125 L 10.53125 -13.46875 L 10.421875 -13.46875 Z M 8.4375 -6.8125 "/></g></g></g><g fill="#33b417" fill-opacity="1"><g transform="translate(1395.848035, 349.91886)"><g><path d="M 9.859375 -19 C 12.242188 -19 14.203125 -18.515625 15.734375 -17.546875 C 17.273438 -16.578125 18.066406 -15.144531 18.109375 -13.25 L 18.109375 -12.921875 L 12.484375 -12.921875 L 12.484375 -13.03125 C 12.484375 -13.570312 12.285156 -14.019531 11.890625 -14.375 C 11.492188 -14.738281 10.882812 -14.921875 10.0625 -14.921875 C 9.269531 -14.921875 8.660156 -14.800781 8.234375 -14.5625 C 7.804688 -14.332031 7.59375 -14.046875 7.59375 -13.703125 C 7.59375 -13.210938 7.882812 -12.847656 8.46875 -12.609375 C 9.050781 -12.378906 9.984375 -12.140625 11.265625 -11.890625 C 12.765625 -11.578125 14 -11.253906 14.96875 -10.921875 C 15.9375 -10.585938 16.78125 -10.039062 17.5 -9.28125 C 18.226562 -8.519531 18.601562 -7.488281 18.625 -6.1875 C 18.625 -3.976562 17.875 -2.335938 16.375 -1.265625 C 14.882812 -0.203125 12.890625 0.328125 10.390625 0.328125 C 7.484375 0.328125 5.21875 -0.160156 3.59375 -1.140625 C 1.976562 -2.117188 1.171875 -3.847656 1.171875 -6.328125 L 6.84375 -6.328125 C 6.84375 -5.378906 7.085938 -4.75 7.578125 -4.4375 C 8.066406 -4.125 8.828125 -3.96875 9.859375 -3.96875 C 10.609375 -3.96875 11.234375 -4.046875 11.734375 -4.203125 C 12.234375 -4.367188 12.484375 -4.707031 12.484375 -5.21875 C 12.484375 -5.664062 12.207031 -6 11.65625 -6.21875 C 11.101562 -6.445312 10.203125 -6.691406 8.953125 -6.953125 C 7.429688 -7.273438 6.171875 -7.613281 5.171875 -7.96875 C 4.179688 -8.320312 3.316406 -8.90625 2.578125 -9.71875 C 1.835938 -10.53125 1.46875 -11.632812 1.46875 -13.03125 C 1.46875 -15.070312 2.257812 -16.578125 3.84375 -17.546875 C 5.425781 -18.515625 7.429688 -19 9.859375 -19 Z M 9.859375 -19 "/></g></g></g><g fill="#33b417" fill-opacity="1"><g transform="translate(1416.120503, 349.91886)"><g><path d="M 12.75 -13.890625 L 12.75 0 L 6.765625 0 L 6.765625 -13.890625 L 0.625 -13.890625 L 0.625 -18.671875 L 18.859375 -18.671875 L 18.859375 -13.890625 Z M 12.75 -13.890625 "/></g></g></g><g clip-path="url(#ac949488d6)"><path fill="#33b417" d="M 1160.789062 462.171875 C 1152.074219 462.171875 1145.003906 469.242188 1145.003906 477.960938 C 1145.003906 489.800781 1160.789062 507.28125 1160.789062 507.28125 C 1160.789062 507.28125 1176.578125 489.800781 1176.578125 477.960938 C 1176.578125 469.242188 1169.507812 462.171875 1160.789062 462.171875 Z M 1160.789062 483.597656 C 1157.675781 483.597656 1155.152344 481.074219 1155.152344 477.960938 C 1155.152344 474.847656 1157.675781 472.324219 1160.789062 472.324219 C 1163.902344 472.324219 1166.425781 474.847656 1166.425781 477.960938 C 1166.425781 481.074219 1163.902344 483.597656 1160.789062 483.597656 Z M 1160.789062 483.597656 " fill-opacity="1" fill-rule="nonzero"/></g><g fill="#33b417" fill-opacity="1"><g transform="translate(1041.841038, 441.829861)"><g><path d="M 15.359375 0 L 7.515625 -9.0625 L 7.515625 0 L 2.015625 0 L 2.015625 -18.671875 L 7.25 -18.671875 L 15.09375 -9.46875 L 15.09375 -18.671875 L 20.59375 -18.671875 L 20.59375 0 Z M 15.359375 0 "/></g></g></g><g fill="#33b417" fill-opacity="1"><g transform="translate(1065.125846, 441.829861)"><g><path d="M 11.296875 -19 C 14.515625 -19 17 -18.175781 18.75 -16.53125 C 20.507812 -14.882812 21.390625 -12.488281 21.390625 -9.34375 C 21.390625 -6.1875 20.507812 -3.785156 18.75 -2.140625 C 17 -0.492188 14.515625 0.328125 11.296875 0.328125 C 8.066406 0.328125 5.578125 -0.488281 3.828125 -2.125 C 2.085938 -3.769531 1.21875 -6.175781 1.21875 -9.34375 C 1.21875 -12.507812 2.085938 -14.910156 3.828125 -16.546875 C 5.578125 -18.179688 8.066406 -19 11.296875 -19 Z M 11.296875 -14.515625 C 10.003906 -14.515625 9.023438 -14.125 8.359375 -13.34375 C 7.691406 -12.570312 7.359375 -11.523438 7.359375 -10.203125 L 7.359375 -8.46875 C 7.359375 -7.144531 7.691406 -6.09375 8.359375 -5.3125 C 9.023438 -4.539062 10.003906 -4.15625 11.296875 -4.15625 C 12.578125 -4.15625 13.554688 -4.539062 14.234375 -5.3125 C 14.910156 -6.09375 15.25 -7.144531 15.25 -8.46875 L 15.25 -10.203125 C 15.25 -11.523438 14.910156 -12.570312 14.234375 -13.34375 C 13.554688 -14.125 12.578125 -14.515625 11.296875 -14.515625 Z M 11.296875 -14.515625 "/></g></g></g><g fill="#33b417" fill-opacity="1"><g transform="translate(1088.410653, 441.829861)"><g><path d="M 19.734375 -12.953125 C 19.734375 -11.804688 19.425781 -10.769531 18.8125 -9.84375 C 18.195312 -8.925781 17.300781 -8.25 16.125 -7.8125 L 20.28125 0 L 13.546875 0 L 10.234375 -6.8125 L 8 -6.8125 L 8 0 L 2.015625 0 L 2.015625 -18.671875 L 13.4375 -18.671875 C 14.769531 -18.671875 15.910156 -18.410156 16.859375 -17.890625 C 17.816406 -17.378906 18.535156 -16.6875 19.015625 -15.8125 C 19.492188 -14.9375 19.734375 -13.984375 19.734375 -12.953125 Z M 13.625 -12.703125 C 13.625 -13.191406 13.457031 -13.597656 13.125 -13.921875 C 12.800781 -14.242188 12.40625 -14.40625 11.9375 -14.40625 L 8 -14.40625 L 8 -10.96875 L 11.9375 -10.96875 C 12.40625 -10.96875 12.800781 -11.132812 13.125 -11.46875 C 13.457031 -11.800781 13.625 -12.210938 13.625 -12.703125 Z M 13.625 -12.703125 "/></g></g></g><g fill="#33b417" fill-opacity="1"><g transform="translate(1109.958576, 441.829861)"><g><path d="M 12.75 -13.890625 L 12.75 0 L 6.765625 0 L 6.765625 -13.890625 L 0.625 -13.890625 L 0.625 -18.671875 L 18.859375 -18.671875 L 18.859375 -13.890625 Z M 12.75 -13.890625 "/></g></g></g><g fill="#33b417" fill-opacity="1"><g transform="translate(1130.231044, 441.829861)"><g><path d="M 14.609375 0 L 14.609375 -7.078125 L 8 -7.078125 L 8 0 L 2.015625 0 L 2.015625 -18.671875 L 8 -18.671875 L 8 -11.859375 L 14.609375 -11.859375 L 14.609375 -18.671875 L 20.59375 -18.671875 L 20.59375 0 Z M 14.609375 0 "/></g></g></g><g fill="#33b417" fill-opacity="1"><g transform="translate(1153.515847, 441.829861)"><g/></g></g><g fill="#33b417" fill-opacity="1"><g transform="translate(1163.231565, 441.829861)"><g><path d="M 14.515625 0 L 13.734375 -2.625 L 7.1875 -2.625 L 6.40625 0 L 0.265625 0 L 7.078125 -18.671875 L 14.0625 -18.671875 L 20.875 0 Z M 8.4375 -6.8125 L 12.484375 -6.8125 L 10.53125 -13.46875 L 10.421875 -13.46875 Z M 8.4375 -6.8125 "/></g></g></g><g fill="#33b417" fill-opacity="1"><g transform="translate(1185.023763, 441.829861)"><g><path d="M 2.015625 -18.671875 L 17.09375 -18.671875 L 17.09375 -14.1875 L 8 -14.1875 L 8 -10.984375 L 15.828125 -10.984375 L 15.828125 -6.703125 L 8 -6.703125 L 8 0 L 2.015625 0 Z M 2.015625 -18.671875 "/></g></g></g><g fill="#33b417" fill-opacity="1"><g transform="translate(1203.803625, 441.829861)"><g><path d="M 19.734375 -12.953125 C 19.734375 -11.804688 19.425781 -10.769531 18.8125 -9.84375 C 18.195312 -8.925781 17.300781 -8.25 16.125 -7.8125 L 20.28125 0 L 13.546875 0 L 10.234375 -6.8125 L 8 -6.8125 L 8 0 L 2.015625 0 L 2.015625 -18.671875 L 13.4375 -18.671875 C 14.769531 -18.671875 15.910156 -18.410156 16.859375 -17.890625 C 17.816406 -17.378906 18.535156 -16.6875 19.015625 -15.8125 C 19.492188 -14.9375 19.734375 -13.984375 19.734375 -12.953125 Z M 13.625 -12.703125 C 13.625 -13.191406 13.457031 -13.597656 13.125 -13.921875 C 12.800781 -14.242188 12.40625 -14.40625 11.9375 -14.40625 L 8 -14.40625 L 8 -10.96875 L 11.9375 -10.96875 C 12.40625 -10.96875 12.800781 -11.132812 13.125 -11.46875 C 13.457031 -11.800781 13.625 -12.210938 13.625 -12.703125 Z M 13.625 -12.703125 "/></g></g></g><g fill="#33b417" fill-opacity="1"><g transform="translate(1225.595823, 441.829861)"><g><path d="M 2.28125 0 L 2.28125 -18.671875 L 8.28125 -18.671875 L 8.28125 0 Z M 2.28125 0 "/></g></g></g><g fill="#33b417" fill-opacity="1"><g transform="translate(1236.831285, 441.829861)"><g><path d="M 10.90625 -19 C 13.675781 -19 15.863281 -18.304688 17.46875 -16.921875 C 19.082031 -15.535156 19.890625 -13.554688 19.890625 -10.984375 L 14.171875 -10.984375 C 14.171875 -12.078125 13.882812 -12.9375 13.3125 -13.5625 C 12.738281 -14.195312 11.929688 -14.515625 10.890625 -14.515625 C 9.671875 -14.515625 8.773438 -14.132812 8.203125 -13.375 C 7.640625 -12.613281 7.359375 -11.554688 7.359375 -10.203125 L 7.359375 -8.46875 C 7.359375 -7.125 7.640625 -6.066406 8.203125 -5.296875 C 8.773438 -4.535156 9.648438 -4.15625 10.828125 -4.15625 C 11.984375 -4.15625 12.859375 -4.453125 13.453125 -5.046875 C 14.054688 -5.640625 14.359375 -6.484375 14.359375 -7.578125 L 19.890625 -7.578125 C 19.890625 -5.023438 19.109375 -3.066406 17.546875 -1.703125 C 15.984375 -0.347656 13.769531 0.328125 10.90625 0.328125 C 7.726562 0.328125 5.316406 -0.484375 3.671875 -2.109375 C 2.035156 -3.742188 1.21875 -6.15625 1.21875 -9.34375 C 1.21875 -12.519531 2.035156 -14.921875 3.671875 -16.546875 C 5.316406 -18.179688 7.726562 -19 10.90625 -19 Z M 10.90625 -19 "/></g></g></g><g fill="#33b417" fill-opacity="1"><g transform="translate(1258.623483, 441.829861)"><g><path d="M 14.515625 0 L 13.734375 -2.625 L 7.1875 -2.625 L 6.40625 0 L 0.265625 0 L 7.078125 -18.671875 L 14.0625 -18.671875 L 20.875 0 Z M 8.4375 -6.8125 L 12.484375 -6.8125 L 10.53125 -13.46875 L 10.421875 -13.46875 Z M 8.4375 -6.8125 "/></g></g></g></svg>