<?xml version="1.0" encoding="UTF-8"?>
<svg version="1.1" viewBox="0 0 2000 2000" width="500" height="500" xmlns="http://www.w3.org/2000/svg">
<path transform="translate(473,582)" d="m0 0h37l36 2 30 3 29 5 31 7 25 7 24 8 25 11 25 12 21 12 22 15 18 14 15 13 12 11 10 10 7 8 14 17 12 17 8 12 11 18 13 25 11 26 11 33 8 32 1 11-231 1-14-1-2-10-9-54-12-49-12-36-8-20-11-24-15-28-10-14-10-13-12-14-8-7-8-8-18-12-10-6-21-8-15-3-7-1h-19l-20 3-15 5-19 10-14 10-12 11-12 12-14 19-10 15-9 16-11 23-10 26-7 21-9 33-10 49-7 50-1 4h-243l3-11 9-31 9-25 12-27 11-21 12-20 8-12 13-18 13-16 14-15 9-10 16-15 13-11 12-9 18-13 21-13 18-10 24-12 30-12 28-9 32-8 27-5 19-3 24-2z" fill="#FEFEFE"/>
<path transform="translate(70,1194)" d="m0 0h238l4 13 7 28 7 23 10 28 12 27 12 23 12 20 10 13 14 17 15 14 14 10 13 8 18 8 15 5 18 2h11l18-2 18-6 18-8 19-13 10-9 13-13 11-15 7-10 10-17 13-25 10-25 12-36 8-30 6-28 1-2h231l-9 20-11 23-12 21-12 18-11 15-13 16-7 9h-2l-2 4-21 21-8 7-13 11-16 12-21 14-28 16-22 11-29 12-33 11-36 9-30 5-36 4-31 2h-27l-37-2-31-3-29-5-36-8-27-8-30-11-27-12-22-12-24-15-18-13-11-9-13-12-8-7-18-18-9-11-10-12-13-18-16-26-14-27-12-29z" fill="#FEFEFE"/>
<path transform="translate(1104,598)" d="m0 0 30 2 33 1h67l56-2 21-1 17 17 7 8 9 9 7 8 7 7v2h2l7 8 17 17 7 8 8 8 7 8 7 7 7 8 8 8 7 8 17 17 7 8 9 9 7 8 31 33 18 18 7 8 7 7 7 8 7 7 7 8 9 9 7 8 18 18 7 8 6 6v2l-6 1-343-1-9-10-7-8-11-12-14-15-2-1 1 2v44h-27l-1-51v-135l-1-28-2-21-4-17-4-10-6-8-7-6-13-6-26-5-20-2-1-2v-20z" fill="#FEFEFE"/>
<path transform="translate(1517,1193)" d="m0 0 306 1 1 13v123l-1 107-6 1-19-1h-30l-28 1-8-8-7-8-18-20-12-13-14-15-7-8-11-12-12-13-14-15-7-8-11-12-12-13-14-15-7-8-11-12-12-13-13-14-7-8-22-24-4-4z" fill="#FEFEFE"/>
<path transform="translate(1677,598)" d="m0 0 42 2 49 1h70l37-1 32-2 1 1v17l-1 6-27 9-16 8-10 8-8 10-6 10-7 18-5 25-3 37-1 32-1 132h-27l-1-124-2-42-4-35-4-20-6-15-6-11-9-10-9-7-15-8-16-6-23-6-24-5-1-2v-21z" fill="#FEFEFE"/>
<path transform="translate(1188,1194)" d="m0 0h26l1 1 1 70 2 33 3 27 5 22 7 16 7 12 9 10 14 9 14 6 18 6 39 9 1 1v20l-2 2-69-2h-108l-31 1-21 1-1-1v-21l5-3 21-7 19-10 10-8 8-10 7-14 5-15 4-22 3-31 1-20 1-55z" fill="#FEFEFE"/>
<path transform="translate(317,986)" d="m0 0h24l9 10 11 14 12 14 8 10 11 13 8 10h1v-71h28l1 6v114l-1 1-22 1-5-5-9-10-9-11-13-16-14-17-11-13v71l-6 1h-21l-2-1z" fill="#FEFEFE"/>
<path transform="translate(1311,986)" d="m0 0h23l10 11 11 14 11 13 8 10 11 13 8 10 1-1v-70h28l1 5-1 116-21 1-4-2-9-11-12-14-8-10-28-34-1-1v70l-3 2h-24l-2-1v-120z" fill="#FEFEFE"/>
<path transform="translate(1070,984)" d="m0 0h20l15 3 14 7 10 8 8 9 7 14 3 10v23l-4 13-6 11-7 9-10 8-14 7-17 4h-18l-17-4-12-6-10-8-8-9-7-14-3-10-1-7v-10l3-15 8-16 9-10 7-6 16-8zm2 24-12 5-8 7-6 9-3 8-1 11 2 12 5 10 5 6 9 6 8 3 13 1 10-2 8-4 8-7 6-10 2-8v-17l-4-11-6-8-9-7-11-4z" fill="#FEFEFE"/>
<path transform="translate(174,984)" d="m0 0h18l16 3 16 8 12 11 9 14 4 11 2 15-2 16-4 11-7 12-12 12-12 7-12 4-10 2h-19l-16-4-15-8-10-9-8-11-5-12-2-7-1-8v-10l4-16 7-14 9-10 10-8 16-7zm1 24-10 4-8 6-6 7-4 8-2 15 2 13 5 9 6 7 7 5 8 3 15 1 9-2 9-5 7-6 6-10 2-8v-17l-4-11-7-9-8-6-11-4z" fill="#FEFEFE"/>
<path transform="translate(1882,985)" d="m0 0h6l-2 4h-2l-1 3h-2l-2 4-9 9-7 8-12 13-7 7-5 6 2 5 14 17 13 17 11 14 9 11 2 4-3 1h-28l-5-5-9-10-9-11-16-20-4 1-12 13-1 31-9 1h-19l-1-1v-120l1-1h27l1 1v54l7-6 7-8 16-17 7-7 7-8 9-9z" fill="#FEFEFE"/>
<path transform="translate(553,984)" d="m0 0h21l14 3 12 5 11 8 3 4-2 4-10 9-3 4-5-1-8-6-10-4-4-1h-16l-11 4-8 6-6 8-4 10-1 12 2 12 6 10 5 5 9 6 6 2 7 1h9l10-2 5-3 1-2 1-33h25l1 1v47l-5 5-15 7-15 4-7 1h-18l-16-4-14-7-12-11-7-10-5-11-2-8-1-16 3-16 4-9 6-10 10-10 11-7 12-5z" fill="#FEFEFE"/>
<path transform="translate(683,986)" d="m0 0h28l1 1v65l2 16 4 8 5 5 7 3 13 1 10-3 6-5 4-7 2-15v-37l1-32h28v75l-3 16-6 12-8 9-11 7-9 3-11 2h-17l-16-4-12-7-7-7-6-10-4-14-1-12z" fill="#FEFEFE"/>
<path transform="translate(1649,984)" d="m0 0h20l14 3 16 8 9 8-1 5-16 14-7-6-10-5-7-2h-15l-11 4-8 6-6 8-4 10-1 13 2 11 5 9 5 6 12 7 10 2h9l13-4 9-6 3-3 4 2 11 10 3 3-1 4-9 8-14 7-11 3-6 1h-18l-16-4-14-7-10-9-6-7-7-14-3-10-1-15 2-13 5-13 6-10 11-11 14-8 12-4z" fill="#FEFEFE"/>
<path transform="translate(855,986)" d="m0 0h106v22l-1 1h-38v98l-9 1h-19l-1-1v-86l1-12h-39l-1-1v-21z" fill="#FEFEFE"/>
<path transform="translate(1497,986)" d="m0 0h28l1 1v120l-28 1-1-1z" fill="#FEFEFE"/>
</svg>
